G04 EAGLE Gerber RS-274X export*
G75*
%MOMM*%
%FSLAX34Y34*%
%LPD*%
%INBottom Copper*%
%IPPOS*%
%AMOC8*
5,1,8,0,0,1.08239X$1,22.5*%
G01*
G04 Define Apertures*
%ADD10R,1.440000X1.440000*%
%ADD11C,1.440000*%
%ADD12C,1.108000*%
%ADD13C,1.836000*%
%ADD14C,1.058000*%
%ADD15R,1.600000X1.300000*%
%ADD16R,1.300000X1.500000*%
%ADD17P,1.58358X8X22.5*%
%ADD18C,1.440000*%
%ADD19C,1.828800*%
%ADD20C,0.600000*%
%ADD21C,0.203200*%
%ADD22C,0.502400*%
%ADD23C,0.452400*%
%ADD24C,1.016000*%
%ADD25C,0.152400*%
%ADD26C,0.200000*%
G36*
X157400Y22060D02*
X157103Y22000D01*
X-5202Y22000D01*
X-5459Y22045D01*
X-5719Y22202D01*
X-5896Y22448D01*
X-5964Y22744D01*
X-5910Y23042D01*
X-5745Y23297D01*
X-5493Y23466D01*
X-370Y25588D01*
X4412Y30370D01*
X7000Y36618D01*
X7000Y43382D01*
X4412Y49630D01*
X-370Y54412D01*
X-6618Y57000D01*
X-13382Y57000D01*
X-19630Y54412D01*
X-24412Y49630D01*
X-26534Y44507D01*
X-26674Y44286D01*
X-26919Y44106D01*
X-27214Y44037D01*
X-27513Y44087D01*
X-27768Y44251D01*
X-27940Y44501D01*
X-28000Y44798D01*
X-28000Y475202D01*
X-27955Y475459D01*
X-27798Y475719D01*
X-27552Y475896D01*
X-27256Y475964D01*
X-26958Y475910D01*
X-26704Y475745D01*
X-26534Y475493D01*
X-24412Y470370D01*
X-19630Y465588D01*
X-13382Y463000D01*
X-6618Y463000D01*
X-370Y465588D01*
X4412Y470370D01*
X7000Y476618D01*
X7000Y483382D01*
X4412Y489630D01*
X-370Y494412D01*
X-5493Y496534D01*
X-5714Y496674D01*
X-5894Y496919D01*
X-5963Y497214D01*
X-5913Y497513D01*
X-5749Y497768D01*
X-5499Y497940D01*
X-5202Y498000D01*
X705202Y498000D01*
X705459Y497955D01*
X705719Y497798D01*
X705896Y497552D01*
X705964Y497256D01*
X705910Y496958D01*
X705745Y496704D01*
X705493Y496534D01*
X700370Y494412D01*
X695588Y489630D01*
X693000Y483382D01*
X693000Y476618D01*
X695588Y470370D01*
X700370Y465588D01*
X706618Y463000D01*
X713382Y463000D01*
X719630Y465588D01*
X724412Y470370D01*
X726534Y475493D01*
X726674Y475714D01*
X726919Y475894D01*
X727214Y475963D01*
X727513Y475913D01*
X727768Y475749D01*
X727940Y475499D01*
X728000Y475202D01*
X728000Y44798D01*
X727955Y44541D01*
X727798Y44281D01*
X727552Y44104D01*
X727256Y44036D01*
X726958Y44090D01*
X726704Y44255D01*
X726534Y44507D01*
X724412Y49630D01*
X719630Y54412D01*
X713382Y57000D01*
X706618Y57000D01*
X700370Y54412D01*
X695588Y49630D01*
X693000Y43382D01*
X693000Y36618D01*
X695588Y30370D01*
X700370Y25588D01*
X705493Y23466D01*
X705714Y23326D01*
X705894Y23081D01*
X705963Y22786D01*
X705913Y22487D01*
X705749Y22232D01*
X705499Y22060D01*
X705202Y22000D01*
X347397Y22000D01*
X347122Y22051D01*
X346867Y22215D01*
X346695Y22465D01*
X346635Y22762D01*
X346635Y95763D01*
X346263Y96135D01*
X158237Y96135D01*
X157865Y95763D01*
X157865Y22762D01*
X157814Y22487D01*
X157650Y22232D01*
X157400Y22060D01*
G37*
%LPC*%
G36*
X204860Y480062D02*
X213838Y480062D01*
X213838Y489040D01*
X206348Y489040D01*
X204860Y487552D01*
X204860Y480062D01*
G37*
G36*
X215362Y480062D02*
X224340Y480062D01*
X224340Y487552D01*
X222852Y489040D01*
X215362Y489040D01*
X215362Y480062D01*
G37*
G36*
X232915Y470830D02*
X236285Y470830D01*
X239398Y472120D01*
X241781Y474502D01*
X243070Y477615D01*
X243070Y480985D01*
X241781Y484098D01*
X239398Y486481D01*
X236285Y487770D01*
X232915Y487770D01*
X229802Y486481D01*
X227420Y484098D01*
X226130Y480985D01*
X226130Y477615D01*
X227420Y474502D01*
X229802Y472120D01*
X232915Y470830D01*
G37*
G36*
X139862Y473962D02*
X147180Y473962D01*
X147180Y480347D01*
X145950Y483317D01*
X143677Y485590D01*
X140707Y486820D01*
X139862Y486820D01*
X139862Y473962D01*
G37*
G36*
X131020Y473962D02*
X138338Y473962D01*
X138338Y486820D01*
X137493Y486820D01*
X134523Y485590D01*
X132250Y483317D01*
X131020Y480347D01*
X131020Y473962D01*
G37*
G36*
X44620Y473962D02*
X51938Y473962D01*
X51938Y486820D01*
X51093Y486820D01*
X48123Y485590D01*
X45850Y483317D01*
X44620Y480347D01*
X44620Y473962D01*
G37*
G36*
X53462Y473962D02*
X60780Y473962D01*
X60780Y480347D01*
X59550Y483317D01*
X57277Y485590D01*
X54307Y486820D01*
X53462Y486820D01*
X53462Y473962D01*
G37*
G36*
X215362Y469560D02*
X222852Y469560D01*
X224340Y471048D01*
X224340Y478538D01*
X215362Y478538D01*
X215362Y469560D01*
G37*
G36*
X206348Y469560D02*
X213838Y469560D01*
X213838Y478538D01*
X204860Y478538D01*
X204860Y471048D01*
X206348Y469560D01*
G37*
G36*
X137493Y459580D02*
X138338Y459580D01*
X138338Y472438D01*
X131020Y472438D01*
X131020Y466053D01*
X132250Y463083D01*
X134523Y460810D01*
X137493Y459580D01*
G37*
G36*
X53462Y459580D02*
X54307Y459580D01*
X57277Y460810D01*
X59550Y463083D01*
X60780Y466053D01*
X60780Y472438D01*
X53462Y472438D01*
X53462Y459580D01*
G37*
G36*
X51093Y459580D02*
X51938Y459580D01*
X51938Y472438D01*
X44620Y472438D01*
X44620Y466053D01*
X45850Y463083D01*
X48123Y460810D01*
X51093Y459580D01*
G37*
G36*
X139862Y459580D02*
X140707Y459580D01*
X143677Y460810D01*
X145950Y463083D01*
X147180Y466053D01*
X147180Y472438D01*
X139862Y472438D01*
X139862Y459580D01*
G37*
G36*
X68537Y198910D02*
X71671Y198910D01*
X73886Y201125D01*
X73886Y203285D01*
X73942Y203571D01*
X74109Y203824D01*
X134620Y264334D01*
X134620Y288976D01*
X134676Y289262D01*
X134843Y289515D01*
X136370Y291041D01*
X136370Y294175D01*
X134155Y296390D01*
X131939Y296390D01*
X131676Y296437D01*
X131418Y296596D01*
X131243Y296844D01*
X131177Y297140D01*
X131233Y297438D01*
X131401Y297691D01*
X131457Y297747D01*
X131698Y297910D01*
X131995Y297970D01*
X134155Y297970D01*
X135351Y299167D01*
X135571Y299320D01*
X135866Y299389D01*
X136165Y299339D01*
X136420Y299175D01*
X136592Y298925D01*
X136652Y298628D01*
X136652Y296338D01*
X214042Y218948D01*
X223444Y218948D01*
X223730Y218892D01*
X223983Y218725D01*
X225509Y217198D01*
X228643Y217198D01*
X230858Y219413D01*
X230858Y222547D01*
X228643Y224762D01*
X225509Y224762D01*
X223983Y223235D01*
X223741Y223072D01*
X223444Y223012D01*
X216041Y223012D01*
X215755Y223068D01*
X215503Y223235D01*
X160357Y278381D01*
X160204Y278601D01*
X160134Y278896D01*
X160185Y279195D01*
X160348Y279450D01*
X160598Y279622D01*
X160895Y279682D01*
X162885Y279682D01*
X164411Y281209D01*
X164653Y281372D01*
X164950Y281432D01*
X266018Y281432D01*
X290622Y306037D01*
X290847Y306192D01*
X291143Y306259D01*
X291441Y306206D01*
X291696Y306041D01*
X291865Y305789D01*
X293020Y303002D01*
X295402Y300620D01*
X298515Y299330D01*
X301885Y299330D01*
X304998Y300620D01*
X307381Y303002D01*
X308670Y306115D01*
X308670Y323885D01*
X307381Y326998D01*
X304998Y329381D01*
X301885Y330670D01*
X298515Y330670D01*
X295402Y329381D01*
X293020Y326998D01*
X291730Y323885D01*
X291730Y313207D01*
X291674Y312921D01*
X291507Y312669D01*
X264558Y285719D01*
X264316Y285556D01*
X264019Y285496D01*
X164950Y285496D01*
X164664Y285552D01*
X164411Y285719D01*
X162885Y287246D01*
X159751Y287246D01*
X157536Y285031D01*
X157536Y283041D01*
X157489Y282778D01*
X157330Y282520D01*
X157082Y282345D01*
X156786Y282279D01*
X156488Y282335D01*
X156235Y282503D01*
X140939Y297799D01*
X140776Y298040D01*
X140716Y298337D01*
X140716Y305642D01*
X86186Y360172D01*
X44878Y360172D01*
X43211Y358505D01*
X42980Y358347D01*
X42684Y358281D01*
X42386Y358337D01*
X42133Y358505D01*
X38831Y361807D01*
X38668Y362048D01*
X38608Y362345D01*
X38608Y456616D01*
X38664Y456902D01*
X38831Y457155D01*
X40358Y458681D01*
X40358Y461815D01*
X38143Y464030D01*
X35009Y464030D01*
X32794Y461815D01*
X32794Y458681D01*
X34321Y457155D01*
X34484Y456913D01*
X34544Y456616D01*
X34544Y360346D01*
X37764Y357127D01*
X37917Y356907D01*
X37986Y356612D01*
X37935Y356313D01*
X37772Y356058D01*
X37522Y355886D01*
X37225Y355826D01*
X35009Y355826D01*
X32794Y353611D01*
X32794Y350477D01*
X34321Y348951D01*
X34484Y348709D01*
X34544Y348412D01*
X34544Y337961D01*
X34488Y337675D01*
X34321Y337423D01*
X23992Y327093D01*
X23750Y326930D01*
X23453Y326870D01*
X21293Y326870D01*
X19078Y324655D01*
X19078Y321521D01*
X21293Y319306D01*
X24427Y319306D01*
X26642Y321521D01*
X26642Y323681D01*
X26698Y323967D01*
X26865Y324220D01*
X38608Y335962D01*
X38608Y348412D01*
X38664Y348698D01*
X38831Y348951D01*
X39339Y349459D01*
X39559Y349612D01*
X39854Y349681D01*
X40153Y349631D01*
X40408Y349467D01*
X40580Y349217D01*
X40640Y348920D01*
X40640Y267857D01*
X40584Y267571D01*
X40417Y267319D01*
X37708Y264609D01*
X37466Y264446D01*
X37169Y264386D01*
X35009Y264386D01*
X32794Y262171D01*
X32794Y259037D01*
X35009Y256822D01*
X38143Y256822D01*
X40358Y259037D01*
X40358Y261197D01*
X40414Y261483D01*
X40581Y261736D01*
X44704Y265858D01*
X44704Y353935D01*
X44760Y354221D01*
X44927Y354474D01*
X46339Y355885D01*
X46580Y356048D01*
X46877Y356108D01*
X51740Y356108D01*
X52003Y356061D01*
X52261Y355902D01*
X52437Y355654D01*
X52502Y355358D01*
X52446Y355060D01*
X52279Y354807D01*
X51082Y353611D01*
X51082Y350477D01*
X52609Y348951D01*
X52772Y348709D01*
X52832Y348412D01*
X52832Y331390D01*
X67623Y316600D01*
X67786Y316358D01*
X67846Y316061D01*
X67846Y313901D01*
X70061Y311686D01*
X72221Y311686D01*
X72507Y311630D01*
X72760Y311463D01*
X78186Y306036D01*
X78356Y306036D01*
X78642Y305980D01*
X78895Y305813D01*
X80813Y303895D01*
X80976Y303653D01*
X81036Y303356D01*
X81036Y303186D01*
X110295Y273928D01*
X110458Y273686D01*
X110518Y273389D01*
X110518Y271229D01*
X112733Y269014D01*
X115867Y269014D01*
X117063Y270211D01*
X117283Y270364D01*
X117578Y270433D01*
X117877Y270383D01*
X118132Y270219D01*
X118304Y269969D01*
X118364Y269672D01*
X118364Y263285D01*
X118308Y262999D01*
X118141Y262747D01*
X94096Y238701D01*
X93854Y238538D01*
X93557Y238478D01*
X91397Y238478D01*
X89182Y236263D01*
X89182Y233129D01*
X91397Y230914D01*
X93613Y230914D01*
X93876Y230867D01*
X94134Y230708D01*
X94310Y230460D01*
X94375Y230164D01*
X94319Y229866D01*
X94152Y229613D01*
X71236Y206697D01*
X70994Y206534D01*
X70697Y206474D01*
X68537Y206474D01*
X66322Y204259D01*
X66322Y201125D01*
X68537Y198910D01*
G37*
G36*
X44620Y432162D02*
X51938Y432162D01*
X51938Y445020D01*
X51093Y445020D01*
X48123Y443790D01*
X45850Y441517D01*
X44620Y438547D01*
X44620Y432162D01*
G37*
G36*
X64825Y431150D02*
X69175Y431150D01*
X72250Y434225D01*
X72250Y438575D01*
X69175Y441650D01*
X64825Y441650D01*
X61862Y438687D01*
X61638Y438532D01*
X61342Y438464D01*
X61043Y438517D01*
X60789Y438683D01*
X60620Y438934D01*
X59550Y441517D01*
X57277Y443790D01*
X54307Y445020D01*
X53462Y445020D01*
X53462Y432162D01*
X60780Y432162D01*
X60780Y433356D01*
X60827Y433619D01*
X60986Y433877D01*
X61234Y434053D01*
X61530Y434118D01*
X61828Y434062D01*
X62081Y433895D01*
X64825Y431150D01*
G37*
G36*
X139862Y432162D02*
X147180Y432162D01*
X147180Y438547D01*
X145950Y441517D01*
X143677Y443790D01*
X140707Y445020D01*
X139862Y445020D01*
X139862Y432162D01*
G37*
G36*
X122625Y431150D02*
X126975Y431150D01*
X129719Y433895D01*
X129939Y434048D01*
X130234Y434117D01*
X130533Y434067D01*
X130788Y433903D01*
X130960Y433653D01*
X131020Y433356D01*
X131020Y432162D01*
X138338Y432162D01*
X138338Y445020D01*
X137493Y445020D01*
X134523Y443790D01*
X132250Y441517D01*
X131180Y438934D01*
X131032Y438705D01*
X130785Y438529D01*
X130489Y438464D01*
X130190Y438520D01*
X129938Y438687D01*
X126975Y441650D01*
X122625Y441650D01*
X119550Y438575D01*
X119550Y434225D01*
X122625Y431150D01*
G37*
G36*
X51093Y417780D02*
X51938Y417780D01*
X51938Y430638D01*
X44620Y430638D01*
X44620Y424253D01*
X45850Y421283D01*
X48123Y419010D01*
X51093Y417780D01*
G37*
G36*
X134737Y382650D02*
X147263Y382650D01*
X149597Y383617D01*
X151383Y385403D01*
X152350Y387737D01*
X152350Y390263D01*
X151383Y392597D01*
X150967Y393013D01*
X150809Y393244D01*
X150744Y393540D01*
X150800Y393838D01*
X150967Y394091D01*
X151383Y394507D01*
X152350Y396841D01*
X152350Y399367D01*
X151383Y401701D01*
X149201Y403883D01*
X146867Y404850D01*
X138446Y404850D01*
X138160Y404906D01*
X137907Y405073D01*
X127509Y415471D01*
X125175Y416438D01*
X54898Y416438D01*
X54641Y416483D01*
X54381Y416640D01*
X54204Y416886D01*
X54136Y417182D01*
X54190Y417480D01*
X54355Y417735D01*
X54607Y417904D01*
X57277Y419010D01*
X59550Y421283D01*
X60780Y424253D01*
X60780Y430638D01*
X53462Y430638D01*
X53462Y417646D01*
X53575Y417578D01*
X53752Y417332D01*
X53820Y417036D01*
X53767Y416738D01*
X53601Y416484D01*
X53350Y416314D01*
X51315Y415471D01*
X49529Y413685D01*
X48562Y411351D01*
X48562Y408825D01*
X49529Y406491D01*
X49981Y406039D01*
X50139Y405808D01*
X50204Y405512D01*
X50148Y405214D01*
X49981Y404961D01*
X49617Y404597D01*
X48650Y402263D01*
X48650Y399737D01*
X49617Y397403D01*
X51403Y395617D01*
X53737Y394650D01*
X121054Y394650D01*
X121340Y394594D01*
X121593Y394427D01*
X132403Y383617D01*
X134737Y382650D01*
G37*
G36*
X137493Y417780D02*
X138338Y417780D01*
X138338Y430638D01*
X131020Y430638D01*
X131020Y424253D01*
X132250Y421283D01*
X134523Y419010D01*
X137493Y417780D01*
G37*
G36*
X139862Y417780D02*
X140707Y417780D01*
X143677Y419010D01*
X145950Y421283D01*
X147180Y424253D01*
X147180Y430638D01*
X139862Y430638D01*
X139862Y417780D01*
G37*
G36*
X158231Y364730D02*
X161769Y364730D01*
X164270Y367231D01*
X164270Y370769D01*
X162509Y372530D01*
X162346Y372771D01*
X162286Y373068D01*
X162286Y411932D01*
X162342Y412218D01*
X162509Y412471D01*
X164270Y414231D01*
X164270Y417769D01*
X161769Y420270D01*
X158231Y420270D01*
X155730Y417769D01*
X155730Y414231D01*
X157491Y412471D01*
X157654Y412229D01*
X157714Y411932D01*
X157714Y373068D01*
X157658Y372782D01*
X157491Y372530D01*
X155730Y370769D01*
X155730Y367231D01*
X158231Y364730D01*
G37*
G36*
X672665Y368132D02*
X685855Y368132D01*
X688266Y369131D01*
X690111Y370976D01*
X691110Y373387D01*
X691110Y375997D01*
X690111Y378408D01*
X688266Y380253D01*
X685855Y381252D01*
X672665Y381252D01*
X670268Y380259D01*
X669988Y380201D01*
X669690Y380257D01*
X669437Y380424D01*
X663993Y385869D01*
X663830Y386110D01*
X663770Y386407D01*
X663770Y391126D01*
X663026Y391870D01*
X645974Y391870D01*
X645230Y391126D01*
X645230Y377074D01*
X645974Y376330D01*
X663026Y376330D01*
X663770Y377074D01*
X663770Y378505D01*
X663817Y378768D01*
X663976Y379026D01*
X664224Y379202D01*
X664520Y379267D01*
X664818Y379211D01*
X665071Y379044D01*
X667257Y376857D01*
X667418Y376621D01*
X667480Y376324D01*
X667422Y376027D01*
X667410Y375997D01*
X667410Y373387D01*
X668409Y370976D01*
X670254Y369131D01*
X672665Y368132D01*
G37*
G36*
X365396Y360838D02*
X376354Y360838D01*
X376354Y380976D01*
X374785Y380976D01*
X370477Y379192D01*
X367180Y375895D01*
X365396Y371587D01*
X365396Y360838D01*
G37*
G36*
X377878Y360838D02*
X388836Y360838D01*
X388836Y371587D01*
X387052Y375895D01*
X383755Y379192D01*
X379447Y380976D01*
X377878Y380976D01*
X377878Y360838D01*
G37*
G36*
X349637Y340446D02*
X353795Y340446D01*
X357635Y342037D01*
X360575Y344977D01*
X362166Y348817D01*
X362166Y371335D01*
X360575Y375175D01*
X357635Y378115D01*
X353795Y379706D01*
X349637Y379706D01*
X345797Y378115D01*
X342857Y375175D01*
X341266Y371335D01*
X341266Y348817D01*
X342857Y344977D01*
X345797Y342037D01*
X349637Y340446D01*
G37*
G36*
X515629Y25842D02*
X519771Y25842D01*
X523599Y27427D01*
X526529Y30357D01*
X528114Y34185D01*
X528114Y56615D01*
X526529Y60443D01*
X523599Y63373D01*
X519771Y64958D01*
X519430Y64958D01*
X519155Y65009D01*
X518900Y65173D01*
X518728Y65423D01*
X518668Y65720D01*
X518668Y71802D01*
X424403Y166067D01*
X424240Y166308D01*
X424180Y166605D01*
X424180Y171530D01*
X413846Y181864D01*
X411574Y181864D01*
X411316Y181909D01*
X411057Y182066D01*
X410879Y182312D01*
X410812Y182608D01*
X410865Y182906D01*
X411031Y183161D01*
X411282Y183330D01*
X414154Y184520D01*
X416537Y186902D01*
X417826Y190015D01*
X417826Y193385D01*
X416537Y196498D01*
X414154Y198881D01*
X411041Y200170D01*
X407671Y200170D01*
X404558Y198881D01*
X402176Y196498D01*
X400886Y193385D01*
X400886Y190015D01*
X401408Y188755D01*
X401465Y188500D01*
X401419Y188200D01*
X401260Y187942D01*
X401012Y187766D01*
X400716Y187701D01*
X400418Y187757D01*
X400165Y187924D01*
X334487Y253603D01*
X334324Y253844D01*
X334264Y254141D01*
X334264Y256874D01*
X321929Y269209D01*
X321771Y269440D01*
X321705Y269736D01*
X321761Y270034D01*
X321929Y270287D01*
X341567Y289925D01*
X341808Y290088D01*
X342105Y290148D01*
X350934Y290148D01*
X366822Y306037D01*
X367047Y306192D01*
X367343Y306259D01*
X367641Y306206D01*
X367896Y306041D01*
X368065Y305789D01*
X369220Y303002D01*
X371602Y300620D01*
X374715Y299330D01*
X378085Y299330D01*
X381198Y300620D01*
X383581Y303002D01*
X383615Y303085D01*
X383763Y303315D01*
X384010Y303490D01*
X384307Y303555D01*
X384605Y303500D01*
X384858Y303332D01*
X392130Y296060D01*
X432063Y296060D01*
X434929Y298926D01*
X435149Y299079D01*
X435444Y299149D01*
X435743Y299098D01*
X435998Y298935D01*
X436170Y298685D01*
X436230Y298387D01*
X436230Y295779D01*
X436174Y295493D01*
X436007Y295240D01*
X426276Y285509D01*
X426035Y285346D01*
X425737Y285286D01*
X396068Y285286D01*
X395782Y285342D01*
X395530Y285509D01*
X393769Y287270D01*
X390231Y287270D01*
X387730Y284769D01*
X387730Y281231D01*
X390231Y278730D01*
X393769Y278730D01*
X395530Y280491D01*
X395771Y280654D01*
X396068Y280714D01*
X427947Y280714D01*
X439240Y292007D01*
X439481Y292170D01*
X439779Y292230D01*
X442269Y292230D01*
X444770Y294731D01*
X444770Y298269D01*
X442269Y300770D01*
X438613Y300770D01*
X438349Y300817D01*
X438091Y300976D01*
X437916Y301224D01*
X437851Y301520D01*
X437906Y301818D01*
X438074Y302071D01*
X438940Y302937D01*
X438940Y314414D01*
X438996Y314700D01*
X439163Y314953D01*
X441955Y317745D01*
X442197Y317908D01*
X442494Y317968D01*
X636843Y317968D01*
X637129Y317912D01*
X637382Y317745D01*
X638455Y316672D01*
X638618Y316430D01*
X638678Y316133D01*
X638678Y311806D01*
X643815Y306670D01*
X643973Y306439D01*
X644038Y306143D01*
X643982Y305845D01*
X643815Y305592D01*
X642725Y304502D01*
X641726Y302091D01*
X641726Y299481D01*
X642725Y297070D01*
X644570Y295225D01*
X645892Y294677D01*
X646117Y294533D01*
X646294Y294287D01*
X646362Y293992D01*
X646309Y293693D01*
X646143Y293439D01*
X645892Y293269D01*
X643851Y292424D01*
X641648Y290221D01*
X640456Y287344D01*
X640456Y286548D01*
X666696Y286548D01*
X666696Y287344D01*
X665504Y290221D01*
X663301Y292424D01*
X661260Y293269D01*
X661035Y293413D01*
X660858Y293659D01*
X660790Y293955D01*
X660843Y294254D01*
X661009Y294508D01*
X661260Y294677D01*
X662582Y295225D01*
X664427Y297070D01*
X664674Y297666D01*
X664814Y297887D01*
X665059Y298066D01*
X665354Y298136D01*
X665653Y298085D01*
X665908Y297921D01*
X666080Y297671D01*
X666140Y297374D01*
X666140Y296935D01*
X667332Y294057D01*
X669535Y291854D01*
X672413Y290662D01*
X678498Y290662D01*
X678498Y306322D01*
X672413Y306322D01*
X669535Y305130D01*
X667332Y302927D01*
X666892Y301865D01*
X666752Y301644D01*
X666507Y301465D01*
X666212Y301395D01*
X665913Y301446D01*
X665658Y301609D01*
X665486Y301859D01*
X665452Y302028D01*
X664427Y304502D01*
X662582Y306347D01*
X660171Y307346D01*
X650205Y307346D01*
X649919Y307402D01*
X649667Y307569D01*
X649311Y307925D01*
X649158Y308145D01*
X649088Y308440D01*
X649139Y308739D01*
X649302Y308994D01*
X649552Y309166D01*
X649849Y309226D01*
X660171Y309226D01*
X662582Y310225D01*
X664427Y312070D01*
X665426Y314481D01*
X665426Y317091D01*
X664427Y319502D01*
X662582Y321347D01*
X660171Y322346D01*
X646981Y322346D01*
X644522Y321327D01*
X644243Y321270D01*
X643945Y321325D01*
X643692Y321493D01*
X640811Y324373D01*
X640648Y324615D01*
X640588Y324912D01*
X640588Y328398D01*
X640633Y328655D01*
X640790Y328915D01*
X641036Y329092D01*
X641332Y329159D01*
X641630Y329106D01*
X641885Y328941D01*
X642054Y328689D01*
X642725Y327070D01*
X644570Y325225D01*
X646981Y324226D01*
X660171Y324226D01*
X662582Y325225D01*
X664427Y327070D01*
X665426Y329481D01*
X665426Y332091D01*
X664427Y334502D01*
X662582Y336347D01*
X660171Y337346D01*
X646981Y337346D01*
X644570Y336347D01*
X644315Y336290D01*
X644015Y336336D01*
X643757Y336496D01*
X643582Y336743D01*
X643517Y337039D01*
X643572Y337337D01*
X643740Y337590D01*
X646795Y340645D01*
X647036Y340808D01*
X647333Y340868D01*
X666830Y340868D01*
X669497Y343535D01*
X669733Y343696D01*
X670030Y343758D01*
X670327Y343700D01*
X672665Y342732D01*
X685855Y342732D01*
X688266Y343731D01*
X690111Y345576D01*
X691110Y347987D01*
X691110Y350597D01*
X690111Y353008D01*
X688266Y354853D01*
X685855Y355852D01*
X672665Y355852D01*
X670254Y354853D01*
X668409Y353008D01*
X667410Y350597D01*
X667410Y347987D01*
X667447Y347898D01*
X667505Y347618D01*
X667449Y347320D01*
X667282Y347067D01*
X665370Y345155D01*
X665128Y344992D01*
X664831Y344932D01*
X645334Y344932D01*
X636524Y336122D01*
X636524Y325882D01*
X636473Y325607D01*
X636309Y325352D01*
X636059Y325180D01*
X635762Y325120D01*
X438070Y325120D01*
X436818Y323867D01*
X436593Y323712D01*
X436297Y323644D01*
X435998Y323698D01*
X435744Y323863D01*
X435575Y324115D01*
X434381Y326998D01*
X431998Y329381D01*
X428885Y330670D01*
X425515Y330670D01*
X422402Y329381D01*
X420020Y326998D01*
X418730Y323885D01*
X418730Y306115D01*
X420020Y303002D01*
X421121Y301901D01*
X421274Y301681D01*
X421344Y301386D01*
X421293Y301087D01*
X421129Y300832D01*
X420879Y300660D01*
X420582Y300600D01*
X408418Y300600D01*
X408155Y300647D01*
X407897Y300806D01*
X407721Y301054D01*
X407656Y301350D01*
X407712Y301648D01*
X407879Y301901D01*
X408981Y303002D01*
X410270Y306115D01*
X410270Y323885D01*
X408981Y326998D01*
X406598Y329381D01*
X403485Y330670D01*
X400115Y330670D01*
X397002Y329381D01*
X394620Y326998D01*
X393330Y323885D01*
X393330Y306115D01*
X394620Y303002D01*
X395721Y301901D01*
X395874Y301681D01*
X395944Y301386D01*
X395893Y301087D01*
X395729Y300832D01*
X395479Y300660D01*
X395182Y300600D01*
X394326Y300600D01*
X394040Y300656D01*
X393787Y300823D01*
X385093Y309517D01*
X384930Y309759D01*
X384870Y310056D01*
X384870Y323885D01*
X383581Y326998D01*
X381198Y329381D01*
X378085Y330670D01*
X374715Y330670D01*
X371602Y329381D01*
X369220Y326998D01*
X367930Y323885D01*
X367930Y313207D01*
X367874Y312921D01*
X367707Y312669D01*
X360771Y305733D01*
X360551Y305580D01*
X360256Y305510D01*
X359957Y305561D01*
X359702Y305724D01*
X359530Y305974D01*
X359470Y306271D01*
X359470Y323885D01*
X358181Y326998D01*
X355798Y329381D01*
X352685Y330670D01*
X349315Y330670D01*
X346202Y329381D01*
X343820Y326998D01*
X342530Y323885D01*
X342530Y306115D01*
X343820Y303002D01*
X346202Y300620D01*
X349315Y299330D01*
X352529Y299330D01*
X352792Y299283D01*
X353050Y299124D01*
X353226Y298876D01*
X353291Y298580D01*
X353235Y298282D01*
X353068Y298029D01*
X349474Y294435D01*
X349232Y294272D01*
X348935Y294212D01*
X340106Y294212D01*
X265548Y219653D01*
X265306Y219490D01*
X265009Y219430D01*
X250415Y219430D01*
X250152Y219477D01*
X249894Y219636D01*
X249719Y219884D01*
X249654Y220180D01*
X249709Y220478D01*
X249877Y220731D01*
X315976Y286830D01*
X315976Y301810D01*
X316023Y302073D01*
X316182Y302331D01*
X316430Y302507D01*
X316726Y302572D01*
X317024Y302516D01*
X317277Y302349D01*
X320083Y299543D01*
X323663Y298060D01*
X324838Y298060D01*
X324838Y331940D01*
X323663Y331940D01*
X320083Y330457D01*
X317277Y327651D01*
X317057Y327498D01*
X316762Y327428D01*
X316463Y327479D01*
X316208Y327643D01*
X316036Y327893D01*
X315976Y328190D01*
X315976Y332599D01*
X316032Y332885D01*
X316199Y333138D01*
X323361Y340300D01*
X323597Y340460D01*
X323894Y340523D01*
X324192Y340465D01*
X324237Y340446D01*
X328395Y340446D01*
X332235Y342037D01*
X335175Y344977D01*
X336766Y348817D01*
X336766Y371335D01*
X335175Y375175D01*
X332235Y378115D01*
X328395Y379706D01*
X324237Y379706D01*
X320397Y378115D01*
X317457Y375175D01*
X315866Y371335D01*
X315866Y348817D01*
X317457Y344977D01*
X319335Y343098D01*
X319493Y342868D01*
X319558Y342572D01*
X319503Y342274D01*
X319335Y342021D01*
X311912Y334598D01*
X311912Y288829D01*
X311856Y288543D01*
X311689Y288290D01*
X202113Y178714D01*
X202113Y172923D01*
X202057Y172637D01*
X201890Y172385D01*
X199573Y170068D01*
X199573Y166935D01*
X201788Y164719D01*
X203441Y164719D01*
X203704Y164672D01*
X203962Y164513D01*
X204138Y164266D01*
X204203Y163969D01*
X204147Y163671D01*
X203980Y163418D01*
X149171Y108609D01*
X148929Y108446D01*
X148632Y108386D01*
X146357Y108386D01*
X144142Y106171D01*
X144142Y103037D01*
X146357Y100822D01*
X149491Y100822D01*
X151706Y103037D01*
X151706Y105082D01*
X151762Y105367D01*
X151929Y105620D01*
X258404Y212095D01*
X258645Y212258D01*
X258943Y212318D01*
X268532Y212318D01*
X305419Y249205D01*
X305660Y249368D01*
X305957Y249428D01*
X322504Y249428D01*
X322790Y249372D01*
X323043Y249205D01*
X324569Y247678D01*
X327703Y247678D01*
X329918Y249893D01*
X329918Y250585D01*
X329965Y250848D01*
X330124Y251106D01*
X330372Y251282D01*
X330668Y251347D01*
X330966Y251291D01*
X331219Y251124D01*
X404542Y177800D01*
X411847Y177800D01*
X412133Y177744D01*
X412386Y177577D01*
X413072Y176890D01*
X413223Y176676D01*
X413295Y176381D01*
X413247Y176082D01*
X413085Y175825D01*
X412836Y175652D01*
X412540Y175589D01*
X412242Y175647D01*
X411293Y176040D01*
X410118Y176040D01*
X410118Y156560D01*
X411293Y156560D01*
X414873Y158043D01*
X417613Y160783D01*
X419030Y164203D01*
X419178Y164432D01*
X419425Y164608D01*
X419722Y164673D01*
X420020Y164617D01*
X420273Y164450D01*
X514381Y70342D01*
X514544Y70100D01*
X514604Y69803D01*
X514604Y65043D01*
X514551Y64762D01*
X514385Y64508D01*
X514134Y64339D01*
X511801Y63373D01*
X508871Y60443D01*
X507286Y56615D01*
X507286Y34185D01*
X508871Y30357D01*
X511801Y27427D01*
X515629Y25842D01*
G37*
G36*
X298837Y340446D02*
X302995Y340446D01*
X306835Y342037D01*
X309775Y344977D01*
X311366Y348817D01*
X311366Y371335D01*
X309775Y375175D01*
X306835Y378115D01*
X302995Y379706D01*
X298837Y379706D01*
X294997Y378115D01*
X292057Y375175D01*
X290466Y371335D01*
X290466Y348817D01*
X292057Y344977D01*
X294997Y342037D01*
X298837Y340446D01*
G37*
G36*
X655262Y364862D02*
X665040Y364862D01*
X665040Y371652D01*
X663552Y373140D01*
X655262Y373140D01*
X655262Y364862D01*
G37*
G36*
X643960Y364862D02*
X653738Y364862D01*
X653738Y373140D01*
X645448Y373140D01*
X643960Y371652D01*
X643960Y364862D01*
G37*
G36*
X645448Y355060D02*
X653738Y355060D01*
X653738Y363338D01*
X643960Y363338D01*
X643960Y356548D01*
X645448Y355060D01*
G37*
G36*
X655262Y355060D02*
X663552Y355060D01*
X665040Y356548D01*
X665040Y363338D01*
X655262Y363338D01*
X655262Y355060D01*
G37*
G36*
X632338Y350548D02*
X639656Y350548D01*
X639656Y356143D01*
X638426Y359113D01*
X636153Y361386D01*
X633183Y362616D01*
X632338Y362616D01*
X632338Y350548D01*
G37*
G36*
X623496Y350548D02*
X630814Y350548D01*
X630814Y362616D01*
X629969Y362616D01*
X626999Y361386D01*
X624726Y359113D01*
X623496Y356143D01*
X623496Y350548D01*
G37*
G36*
X374785Y339176D02*
X376354Y339176D01*
X376354Y359314D01*
X365396Y359314D01*
X365396Y348565D01*
X367180Y344257D01*
X370477Y340960D01*
X374785Y339176D01*
G37*
G36*
X377878Y339176D02*
X379447Y339176D01*
X383755Y340960D01*
X387052Y344257D01*
X388836Y348565D01*
X388836Y359314D01*
X377878Y359314D01*
X377878Y339176D01*
G37*
G36*
X629969Y336956D02*
X630814Y336956D01*
X630814Y349024D01*
X623496Y349024D01*
X623496Y343429D01*
X624726Y340459D01*
X626999Y338186D01*
X629969Y336956D01*
G37*
G36*
X632338Y336956D02*
X633183Y336956D01*
X636153Y338186D01*
X638426Y340459D01*
X639656Y343429D01*
X639656Y349024D01*
X632338Y349024D01*
X632338Y336956D01*
G37*
G36*
X326362Y315762D02*
X335340Y315762D01*
X335340Y324137D01*
X333857Y327717D01*
X331117Y330457D01*
X327537Y331940D01*
X326362Y331940D01*
X326362Y315762D01*
G37*
G36*
X672665Y317332D02*
X685855Y317332D01*
X688266Y318331D01*
X690111Y320176D01*
X691110Y322587D01*
X691110Y325197D01*
X690111Y327608D01*
X688266Y329453D01*
X685855Y330452D01*
X672665Y330452D01*
X670254Y329453D01*
X668409Y327608D01*
X667410Y325197D01*
X667410Y322587D01*
X668409Y320176D01*
X670254Y318331D01*
X672665Y317332D01*
G37*
G36*
X326362Y298060D02*
X327537Y298060D01*
X331117Y299543D01*
X333857Y302283D01*
X335340Y305863D01*
X335340Y314238D01*
X326362Y314238D01*
X326362Y298060D01*
G37*
G36*
X680022Y299254D02*
X692380Y299254D01*
X692380Y300050D01*
X691188Y302927D01*
X688985Y305130D01*
X686108Y306322D01*
X680022Y306322D01*
X680022Y299254D01*
G37*
G36*
X680022Y290662D02*
X686108Y290662D01*
X688985Y291854D01*
X691188Y294057D01*
X692380Y296935D01*
X692380Y297730D01*
X680022Y297730D01*
X680022Y290662D01*
G37*
G36*
X574644Y33179D02*
X581756Y33179D01*
X586785Y38208D01*
X586785Y45320D01*
X586670Y45435D01*
X586517Y45655D01*
X586447Y45950D01*
X586498Y46249D01*
X586662Y46504D01*
X586912Y46676D01*
X587209Y46736D01*
X613490Y46736D01*
X640101Y73347D01*
X640342Y73510D01*
X640639Y73570D01*
X647686Y73570D01*
X648430Y74314D01*
X648430Y90366D01*
X647686Y91110D01*
X644398Y91110D01*
X644123Y91161D01*
X643868Y91325D01*
X643696Y91575D01*
X643636Y91872D01*
X643636Y93128D01*
X643687Y93403D01*
X643851Y93658D01*
X644101Y93830D01*
X644398Y93890D01*
X647426Y93890D01*
X648170Y94634D01*
X648170Y110641D01*
X648217Y110904D01*
X648376Y111162D01*
X648624Y111338D01*
X648920Y111403D01*
X649218Y111347D01*
X649471Y111180D01*
X650017Y110634D01*
X650180Y110392D01*
X650240Y110095D01*
X650240Y69262D01*
X651654Y67849D01*
X672160Y47343D01*
X672318Y47112D01*
X672383Y46816D01*
X672327Y46518D01*
X672160Y46265D01*
X671215Y45320D01*
X671215Y38208D01*
X676244Y33179D01*
X683356Y33179D01*
X688385Y38208D01*
X688385Y45320D01*
X683356Y50349D01*
X676244Y50349D01*
X676111Y50216D01*
X675881Y50058D01*
X675584Y49993D01*
X675286Y50049D01*
X675033Y50216D01*
X654527Y70723D01*
X654364Y70964D01*
X654304Y71261D01*
X654304Y112094D01*
X650066Y116332D01*
X624586Y116332D01*
X624311Y116383D01*
X624056Y116547D01*
X623884Y116797D01*
X623824Y117094D01*
X623824Y168007D01*
X623880Y168293D01*
X624047Y168546D01*
X632968Y177466D01*
X632968Y178464D01*
X633019Y178739D01*
X633183Y178994D01*
X633433Y179166D01*
X633730Y179226D01*
X633931Y179226D01*
X636434Y180263D01*
X638349Y182178D01*
X639386Y184681D01*
X639386Y196891D01*
X638349Y199394D01*
X636434Y201309D01*
X633931Y202346D01*
X631221Y202346D01*
X628718Y201309D01*
X626803Y199394D01*
X625766Y196891D01*
X625766Y184681D01*
X626803Y182178D01*
X628681Y180300D01*
X628844Y180059D01*
X628904Y179762D01*
X628904Y179465D01*
X628848Y179179D01*
X628681Y178927D01*
X619760Y170006D01*
X619760Y112192D01*
X619709Y111917D01*
X619545Y111662D01*
X619295Y111490D01*
X618998Y111430D01*
X614374Y111430D01*
X613630Y110686D01*
X613630Y94634D01*
X614374Y93890D01*
X618998Y93890D01*
X619273Y93839D01*
X619528Y93675D01*
X619700Y93425D01*
X619760Y93128D01*
X619760Y91872D01*
X619709Y91597D01*
X619545Y91342D01*
X619295Y91170D01*
X618998Y91110D01*
X614634Y91110D01*
X613890Y90366D01*
X613890Y74314D01*
X614634Y73570D01*
X628686Y73570D01*
X629430Y74314D01*
X629430Y90366D01*
X628686Y91110D01*
X624586Y91110D01*
X624311Y91161D01*
X624056Y91325D01*
X623884Y91575D01*
X623824Y91872D01*
X623824Y93128D01*
X623875Y93403D01*
X624039Y93658D01*
X624289Y93830D01*
X624586Y93890D01*
X628426Y93890D01*
X629170Y94634D01*
X629170Y110686D01*
X628889Y110967D01*
X628736Y111187D01*
X628666Y111482D01*
X628717Y111781D01*
X628880Y112036D01*
X629130Y112208D01*
X629428Y112268D01*
X632372Y112268D01*
X632636Y112221D01*
X632894Y112062D01*
X633069Y111814D01*
X633134Y111518D01*
X633079Y111220D01*
X632911Y110967D01*
X632630Y110686D01*
X632630Y94634D01*
X633374Y93890D01*
X638810Y93890D01*
X639085Y93839D01*
X639340Y93675D01*
X639512Y93425D01*
X639572Y93128D01*
X639572Y91872D01*
X639521Y91597D01*
X639357Y91342D01*
X639107Y91170D01*
X638810Y91110D01*
X633634Y91110D01*
X632890Y90366D01*
X632890Y74314D01*
X633566Y73638D01*
X633724Y73407D01*
X633789Y73111D01*
X633734Y72813D01*
X633566Y72560D01*
X623855Y62849D01*
X623624Y62691D01*
X623328Y62625D01*
X623030Y62681D01*
X622777Y62849D01*
X590519Y95107D01*
X590356Y95348D01*
X590296Y95645D01*
X590296Y248779D01*
X590352Y249065D01*
X590519Y249318D01*
X590729Y249528D01*
X590949Y249681D01*
X591244Y249750D01*
X591543Y249699D01*
X591798Y249536D01*
X591970Y249286D01*
X592030Y248989D01*
X592030Y248874D01*
X592774Y248130D01*
X609826Y248130D01*
X610570Y248874D01*
X610570Y255337D01*
X610626Y255623D01*
X610793Y255876D01*
X616269Y261352D01*
X616489Y261505D01*
X616784Y261574D01*
X617083Y261523D01*
X617338Y261360D01*
X617510Y261110D01*
X617570Y260813D01*
X617570Y248874D01*
X618314Y248130D01*
X635366Y248130D01*
X636110Y248874D01*
X636110Y251714D01*
X636161Y251989D01*
X636325Y252244D01*
X636575Y252416D01*
X636872Y252476D01*
X642047Y252476D01*
X642328Y252423D01*
X642582Y252257D01*
X642673Y252121D01*
X644570Y250225D01*
X646981Y249226D01*
X660171Y249226D01*
X662582Y250225D01*
X664427Y252070D01*
X665426Y254481D01*
X665426Y257091D01*
X664427Y259502D01*
X662582Y261347D01*
X660171Y262346D01*
X646981Y262346D01*
X644570Y261347D01*
X642725Y259502D01*
X641693Y257010D01*
X641536Y256772D01*
X641286Y256600D01*
X640989Y256540D01*
X636872Y256540D01*
X636597Y256591D01*
X636342Y256755D01*
X636170Y257005D01*
X636110Y257302D01*
X636110Y262926D01*
X635366Y263670D01*
X618903Y263670D01*
X618640Y263717D01*
X618382Y263876D01*
X618207Y264124D01*
X618141Y264420D01*
X618197Y264718D01*
X618365Y264971D01*
X626983Y273589D01*
X627224Y273752D01*
X627521Y273812D01*
X640447Y273812D01*
X640733Y273756D01*
X640986Y273589D01*
X641588Y272987D01*
X641748Y272751D01*
X641811Y272454D01*
X641753Y272156D01*
X641726Y272091D01*
X641726Y269481D01*
X642725Y267070D01*
X644570Y265225D01*
X646981Y264226D01*
X660171Y264226D01*
X662582Y265225D01*
X664427Y267070D01*
X665426Y269481D01*
X665426Y272091D01*
X664427Y274502D01*
X662582Y276347D01*
X661260Y276895D01*
X661035Y277039D01*
X660858Y277285D01*
X660790Y277580D01*
X660843Y277879D01*
X661009Y278133D01*
X661260Y278303D01*
X663301Y279148D01*
X665504Y281351D01*
X666696Y284229D01*
X666696Y285024D01*
X640456Y285024D01*
X640456Y284229D01*
X641648Y281351D01*
X643851Y279148D01*
X645892Y278303D01*
X646117Y278159D01*
X646294Y277913D01*
X646362Y277617D01*
X646309Y277318D01*
X646143Y277064D01*
X645892Y276895D01*
X644619Y276368D01*
X644340Y276310D01*
X644042Y276365D01*
X643789Y276533D01*
X642446Y277876D01*
X625522Y277876D01*
X612140Y264494D01*
X612140Y263285D01*
X612084Y262999D01*
X611917Y262747D01*
X611871Y262701D01*
X611651Y262548D01*
X611356Y262478D01*
X611057Y262529D01*
X610802Y262692D01*
X610794Y262704D01*
X610793Y262703D01*
X609826Y263670D01*
X592774Y263670D01*
X592030Y262926D01*
X592030Y256891D01*
X591974Y256605D01*
X591807Y256353D01*
X586232Y250778D01*
X586232Y93646D01*
X619904Y59975D01*
X620062Y59744D01*
X620127Y59448D01*
X620071Y59150D01*
X619904Y58897D01*
X612030Y51023D01*
X611788Y50860D01*
X611491Y50800D01*
X584374Y50800D01*
X583379Y49804D01*
X583148Y49646D01*
X582852Y49581D01*
X582554Y49637D01*
X582301Y49804D01*
X581756Y50349D01*
X574644Y50349D01*
X569615Y45320D01*
X569615Y38208D01*
X574644Y33179D01*
G37*
G36*
X672665Y266532D02*
X685855Y266532D01*
X688266Y267531D01*
X690111Y269376D01*
X691110Y271787D01*
X691110Y274397D01*
X690111Y276808D01*
X688266Y278653D01*
X685855Y279652D01*
X672665Y279652D01*
X670254Y278653D01*
X668409Y276808D01*
X667410Y274397D01*
X667410Y271787D01*
X668409Y269376D01*
X670254Y267531D01*
X672665Y266532D01*
G37*
G36*
X25865Y198910D02*
X28999Y198910D01*
X31214Y201125D01*
X31214Y203285D01*
X31270Y203571D01*
X31437Y203824D01*
X82804Y255190D01*
X82804Y263068D01*
X82860Y263354D01*
X83027Y263607D01*
X84554Y265133D01*
X84554Y268267D01*
X82339Y270482D01*
X79205Y270482D01*
X76990Y268267D01*
X76990Y265133D01*
X78517Y263607D01*
X78680Y263365D01*
X78740Y263068D01*
X78740Y257189D01*
X78684Y256903D01*
X78517Y256651D01*
X28564Y206697D01*
X28322Y206534D01*
X28025Y206474D01*
X25865Y206474D01*
X23650Y204259D01*
X23650Y201125D01*
X25865Y198910D01*
G37*
G36*
X672665Y241132D02*
X685855Y241132D01*
X688266Y242131D01*
X690111Y243976D01*
X691110Y246387D01*
X691110Y248997D01*
X690111Y251408D01*
X688266Y253253D01*
X685855Y254252D01*
X672665Y254252D01*
X670254Y253253D01*
X668409Y251408D01*
X667410Y248997D01*
X667410Y246387D01*
X668409Y243976D01*
X670254Y242131D01*
X672665Y241132D01*
G37*
G36*
X620950Y218948D02*
X642446Y218948D01*
X643611Y220113D01*
X643847Y220273D01*
X644143Y220336D01*
X644441Y220278D01*
X646981Y219226D01*
X660171Y219226D01*
X662582Y220225D01*
X664427Y222070D01*
X665426Y224481D01*
X665426Y227091D01*
X664427Y229502D01*
X662582Y231347D01*
X660171Y232346D01*
X646981Y232346D01*
X644570Y231347D01*
X642725Y229502D01*
X641726Y227091D01*
X641726Y224368D01*
X641737Y224315D01*
X641682Y224017D01*
X641514Y223764D01*
X640986Y223235D01*
X640744Y223072D01*
X640447Y223012D01*
X622949Y223012D01*
X622663Y223068D01*
X622411Y223235D01*
X618817Y226829D01*
X618664Y227049D01*
X618594Y227344D01*
X618645Y227643D01*
X618808Y227898D01*
X619058Y228070D01*
X619355Y228130D01*
X635366Y228130D01*
X636110Y228874D01*
X636110Y233426D01*
X636161Y233701D01*
X636325Y233956D01*
X636575Y234128D01*
X636872Y234188D01*
X642446Y234188D01*
X643487Y235230D01*
X643718Y235388D01*
X644014Y235453D01*
X644312Y235397D01*
X644565Y235230D01*
X644570Y235225D01*
X646981Y234226D01*
X660171Y234226D01*
X662582Y235225D01*
X664427Y237070D01*
X665426Y239481D01*
X665426Y242091D01*
X664427Y244502D01*
X662582Y246347D01*
X660171Y247346D01*
X646981Y247346D01*
X644570Y246347D01*
X642725Y244502D01*
X641726Y242091D01*
X641726Y239531D01*
X641670Y239245D01*
X641503Y238993D01*
X640986Y238475D01*
X640744Y238312D01*
X640447Y238252D01*
X636872Y238252D01*
X636597Y238303D01*
X636342Y238467D01*
X636170Y238717D01*
X636110Y239014D01*
X636110Y242926D01*
X635366Y243670D01*
X618314Y243670D01*
X617570Y242926D01*
X617570Y231439D01*
X617523Y231176D01*
X617364Y230918D01*
X617116Y230743D01*
X616820Y230677D01*
X616522Y230733D01*
X616269Y230901D01*
X610793Y236377D01*
X610630Y236618D01*
X610570Y236915D01*
X610570Y242926D01*
X609826Y243670D01*
X592774Y243670D01*
X592030Y242926D01*
X592030Y228874D01*
X592774Y228130D01*
X609826Y228130D01*
X610570Y228874D01*
X610570Y229013D01*
X610617Y229276D01*
X610776Y229534D01*
X611024Y229710D01*
X611320Y229775D01*
X611618Y229719D01*
X611871Y229552D01*
X611917Y229506D01*
X612080Y229264D01*
X612140Y228967D01*
X612140Y227758D01*
X620950Y218948D01*
G37*
G36*
X672665Y215732D02*
X685855Y215732D01*
X688266Y216731D01*
X690111Y218576D01*
X691110Y220987D01*
X691110Y223597D01*
X690111Y226008D01*
X688266Y227853D01*
X685855Y228852D01*
X672665Y228852D01*
X670254Y227853D01*
X668409Y226008D01*
X667410Y223597D01*
X667410Y220987D01*
X668409Y218576D01*
X670254Y216731D01*
X672665Y215732D01*
G37*
G36*
X646981Y204226D02*
X660171Y204226D01*
X662582Y205225D01*
X664427Y207070D01*
X665426Y209481D01*
X665426Y212091D01*
X664427Y214502D01*
X662582Y216347D01*
X660171Y217346D01*
X646981Y217346D01*
X644570Y216347D01*
X642725Y214502D01*
X641726Y212091D01*
X641726Y209481D01*
X642725Y207070D01*
X644570Y205225D01*
X646981Y204226D01*
G37*
G36*
X672665Y190332D02*
X685855Y190332D01*
X688266Y191331D01*
X690111Y193176D01*
X691110Y195587D01*
X691110Y198197D01*
X690111Y200608D01*
X688266Y202453D01*
X685855Y203452D01*
X672665Y203452D01*
X670254Y202453D01*
X668409Y200608D01*
X667410Y198197D01*
X667410Y195587D01*
X668409Y193176D01*
X670254Y191331D01*
X672665Y190332D01*
G37*
G36*
X105720Y183230D02*
X121172Y183230D01*
X121916Y183974D01*
X121916Y199426D01*
X121172Y200170D01*
X105720Y200170D01*
X104976Y199426D01*
X104976Y183974D01*
X105720Y183230D01*
G37*
G36*
X111761Y157830D02*
X115131Y157830D01*
X118244Y159120D01*
X120627Y161502D01*
X121916Y164615D01*
X121916Y166552D01*
X121963Y166815D01*
X122122Y167073D01*
X122370Y167249D01*
X122666Y167314D01*
X122964Y167258D01*
X123217Y167091D01*
X124925Y165382D01*
X128059Y165382D01*
X130274Y167597D01*
X130274Y170731D01*
X128059Y172946D01*
X125899Y172946D01*
X125613Y173002D01*
X125361Y173169D01*
X119714Y178816D01*
X41732Y178816D01*
X41446Y178872D01*
X41193Y179039D01*
X41191Y179042D01*
X38057Y179042D01*
X35842Y176827D01*
X35842Y173693D01*
X38057Y171478D01*
X41191Y171478D01*
X43406Y173693D01*
X43406Y173990D01*
X43457Y174265D01*
X43621Y174520D01*
X43871Y174692D01*
X44168Y174752D01*
X108080Y174752D01*
X108343Y174705D01*
X108601Y174546D01*
X108777Y174298D01*
X108842Y174002D01*
X108786Y173704D01*
X108619Y173451D01*
X106266Y171098D01*
X104976Y167985D01*
X104976Y164615D01*
X106266Y161502D01*
X108648Y159120D01*
X111761Y157830D01*
G37*
G36*
X672665Y164932D02*
X685855Y164932D01*
X688266Y165931D01*
X690111Y167776D01*
X691110Y170187D01*
X691110Y172797D01*
X690111Y175208D01*
X688266Y177053D01*
X685855Y178052D01*
X672665Y178052D01*
X670254Y177053D01*
X668409Y175208D01*
X667410Y172797D01*
X667410Y170187D01*
X668409Y167776D01*
X670254Y165931D01*
X672665Y164932D01*
G37*
G36*
X399616Y167062D02*
X408594Y167062D01*
X408594Y176040D01*
X407419Y176040D01*
X403839Y174557D01*
X401099Y171817D01*
X399616Y168237D01*
X399616Y167062D01*
G37*
G36*
X111761Y132430D02*
X115131Y132430D01*
X118244Y133720D01*
X120627Y136102D01*
X121916Y139215D01*
X121916Y142585D01*
X120627Y145698D01*
X119007Y147317D01*
X118854Y147537D01*
X118784Y147832D01*
X118835Y148131D01*
X118999Y148386D01*
X119249Y148558D01*
X119546Y148618D01*
X120439Y148618D01*
X122654Y150833D01*
X122654Y153967D01*
X120439Y156182D01*
X117305Y156182D01*
X115779Y154655D01*
X115537Y154492D01*
X115240Y154432D01*
X97169Y154432D01*
X96883Y154488D01*
X96631Y154655D01*
X87825Y163461D01*
X87662Y163702D01*
X87602Y163999D01*
X87602Y166159D01*
X85387Y168374D01*
X82253Y168374D01*
X80038Y166159D01*
X80038Y163025D01*
X82253Y160810D01*
X84413Y160810D01*
X84699Y160754D01*
X84952Y160587D01*
X95170Y150368D01*
X110340Y150368D01*
X110597Y150323D01*
X110857Y150166D01*
X111034Y149920D01*
X111102Y149624D01*
X111048Y149326D01*
X110883Y149072D01*
X110631Y148902D01*
X108648Y148081D01*
X106266Y145698D01*
X104976Y142585D01*
X104976Y139215D01*
X106266Y136102D01*
X108648Y133720D01*
X111761Y132430D01*
G37*
G36*
X407419Y156560D02*
X408594Y156560D01*
X408594Y165538D01*
X399616Y165538D01*
X399616Y164363D01*
X401099Y160783D01*
X403839Y158043D01*
X407419Y156560D01*
G37*
G36*
X407671Y132430D02*
X411041Y132430D01*
X414154Y133720D01*
X416537Y136102D01*
X417826Y139215D01*
X417826Y142585D01*
X416537Y145698D01*
X414154Y148081D01*
X411041Y149370D01*
X407671Y149370D01*
X404558Y148081D01*
X402176Y145698D01*
X400886Y142585D01*
X400886Y139215D01*
X402176Y136102D01*
X404558Y133720D01*
X407671Y132430D01*
G37*
G36*
X490229Y25842D02*
X494371Y25842D01*
X498199Y27427D01*
X501129Y30357D01*
X502714Y34185D01*
X502714Y56615D01*
X501129Y60443D01*
X498199Y63373D01*
X494265Y65002D01*
X494205Y65014D01*
X493953Y65181D01*
X444215Y114919D01*
X444052Y115160D01*
X443992Y115457D01*
X443992Y122860D01*
X444048Y123146D01*
X444215Y123399D01*
X445742Y124925D01*
X445742Y128059D01*
X443527Y130274D01*
X440393Y130274D01*
X438178Y128059D01*
X438178Y124925D01*
X439705Y123399D01*
X439868Y123157D01*
X439928Y122860D01*
X439928Y113458D01*
X488149Y65237D01*
X488305Y65012D01*
X488372Y64717D01*
X488319Y64418D01*
X488153Y64164D01*
X487902Y63994D01*
X486401Y63373D01*
X483471Y60443D01*
X481886Y56615D01*
X481886Y34185D01*
X483471Y30357D01*
X486401Y27427D01*
X490229Y25842D01*
G37*
G36*
X407671Y107030D02*
X411041Y107030D01*
X414154Y108320D01*
X416537Y110702D01*
X417826Y113815D01*
X417826Y117185D01*
X416537Y120298D01*
X414154Y122681D01*
X411041Y123970D01*
X407671Y123970D01*
X404558Y122681D01*
X402176Y120298D01*
X400886Y117185D01*
X400886Y113815D01*
X402176Y110702D01*
X404558Y108320D01*
X407671Y107030D01*
G37*
G36*
X111761Y107030D02*
X115131Y107030D01*
X118244Y108320D01*
X120627Y110702D01*
X121916Y113815D01*
X121916Y117185D01*
X120627Y120298D01*
X118244Y122681D01*
X115131Y123970D01*
X111761Y123970D01*
X108648Y122681D01*
X106266Y120298D01*
X104976Y117185D01*
X104976Y113815D01*
X106266Y110702D01*
X108648Y108320D01*
X111761Y107030D01*
G37*
G36*
X111761Y81630D02*
X115131Y81630D01*
X118244Y82920D01*
X120627Y85302D01*
X121916Y88415D01*
X121916Y91785D01*
X120627Y94898D01*
X118244Y97281D01*
X115131Y98570D01*
X111761Y98570D01*
X108648Y97281D01*
X106266Y94898D01*
X104976Y91785D01*
X104976Y88415D01*
X106266Y85302D01*
X108648Y82920D01*
X111761Y81630D01*
G37*
G36*
X455216Y46162D02*
X466138Y46162D01*
X466138Y66228D01*
X464576Y66228D01*
X460282Y64449D01*
X456995Y61162D01*
X455216Y56868D01*
X455216Y46162D01*
G37*
G36*
X467662Y46162D02*
X478584Y46162D01*
X478584Y56868D01*
X476805Y61162D01*
X473518Y64449D01*
X469224Y66228D01*
X467662Y66228D01*
X467662Y46162D01*
G37*
G36*
X541029Y25842D02*
X545171Y25842D01*
X548999Y27427D01*
X551929Y30357D01*
X553514Y34185D01*
X553514Y56615D01*
X551929Y60443D01*
X548999Y63373D01*
X545171Y64958D01*
X541029Y64958D01*
X537201Y63373D01*
X534271Y60443D01*
X532686Y56615D01*
X532686Y34185D01*
X534271Y30357D01*
X537201Y27427D01*
X541029Y25842D01*
G37*
G36*
X467662Y24572D02*
X469224Y24572D01*
X473518Y26351D01*
X476805Y29638D01*
X478584Y33932D01*
X478584Y44638D01*
X467662Y44638D01*
X467662Y24572D01*
G37*
G36*
X464576Y24572D02*
X466138Y24572D01*
X466138Y44638D01*
X455216Y44638D01*
X455216Y33932D01*
X456995Y29638D01*
X460282Y26351D01*
X464576Y24572D01*
G37*
%LPD*%
D10*
X113446Y191700D03*
D11*
X113446Y166300D03*
X113446Y140900D03*
X113446Y115500D03*
X113446Y90100D03*
X409356Y191700D03*
X409356Y166300D03*
X409356Y140900D03*
X409356Y115500D03*
D12*
X139100Y467660D02*
X139100Y478740D01*
X52700Y478740D02*
X52700Y467660D01*
X139100Y436940D02*
X139100Y425860D01*
X52700Y425860D02*
X52700Y436940D01*
D10*
X214600Y479300D03*
D11*
X234600Y479300D03*
D13*
X300916Y369256D02*
X300916Y350896D01*
X326316Y350896D02*
X326316Y369256D01*
X351716Y369256D02*
X351716Y350896D01*
X377116Y350896D02*
X377116Y369256D01*
D14*
X673970Y171492D02*
X684550Y171492D01*
X684550Y196892D02*
X673970Y196892D01*
X673970Y222292D02*
X684550Y222292D01*
X684550Y247692D02*
X673970Y247692D01*
X673970Y273092D02*
X684550Y273092D01*
X684550Y298492D02*
X673970Y298492D01*
X673970Y323892D02*
X684550Y323892D01*
X684550Y349292D02*
X673970Y349292D01*
X673970Y374692D02*
X684550Y374692D01*
X658866Y210786D02*
X648286Y210786D01*
X648286Y225786D02*
X658866Y225786D01*
X658866Y240786D02*
X648286Y240786D01*
X648286Y255786D02*
X658866Y255786D01*
X658866Y270786D02*
X648286Y270786D01*
X648286Y285786D02*
X658866Y285786D01*
X658866Y300786D02*
X648286Y300786D01*
X648286Y315786D02*
X658866Y315786D01*
X658866Y330786D02*
X648286Y330786D01*
D12*
X632576Y195536D02*
X632576Y186036D01*
X631576Y345036D02*
X631576Y354536D01*
D15*
X626840Y235900D03*
X626840Y255900D03*
X654500Y384100D03*
X654500Y364100D03*
X601300Y255900D03*
X601300Y235900D03*
D16*
X640660Y82340D03*
X621660Y82340D03*
X640400Y102660D03*
X621400Y102660D03*
D17*
X578200Y41764D03*
X679800Y41764D03*
D18*
X300200Y307800D02*
X300200Y322200D01*
X325600Y322200D02*
X325600Y307800D01*
X351000Y307800D02*
X351000Y322200D01*
X376400Y322200D02*
X376400Y307800D01*
X401800Y307800D02*
X401800Y322200D01*
X427200Y322200D02*
X427200Y307800D01*
D19*
X466900Y54544D02*
X466900Y36256D01*
X492300Y36256D02*
X492300Y54544D01*
X517700Y54544D02*
X517700Y36256D01*
X543100Y36256D02*
X543100Y54544D01*
D20*
X68000Y473000D03*
X126000Y472000D03*
X85357Y445357D03*
X104043Y444957D03*
X24000Y467000D03*
X169000Y467000D03*
X77000Y302000D03*
X114000Y214000D03*
X66000Y383000D03*
X114000Y353000D03*
X131000Y370000D03*
X269000Y475000D03*
X285000Y476000D03*
X303000Y476000D03*
X239000Y463000D03*
X250000Y446000D03*
X251000Y431000D03*
X214000Y463000D03*
X322000Y455000D03*
X396000Y359000D03*
X334000Y295000D03*
X305000Y268000D03*
D21*
X307000Y268000D02*
X334000Y295000D01*
X307000Y268000D02*
X305000Y268000D01*
X377116Y344415D02*
X377116Y360076D01*
D20*
X451000Y271000D03*
X384000Y178000D03*
X326000Y107000D03*
X151000Y120000D03*
D22*
X511000Y311000D03*
X511000Y332000D03*
X386000Y232000D03*
D20*
X482000Y132000D03*
X609000Y131000D03*
X654000Y462000D03*
X464000Y464000D03*
X615000Y350000D03*
X196000Y266000D03*
X234000Y267000D03*
X192000Y217000D03*
X317000Y196000D03*
X262000Y139000D03*
X205000Y105000D03*
X509200Y192400D03*
X567000Y82000D03*
X540200Y271400D03*
X376000Y387000D03*
D22*
X148000Y52000D03*
X102000Y69000D03*
X22000Y130000D03*
X146000Y373000D03*
X134000Y356000D03*
X51000Y385000D03*
X148000Y416000D03*
X126000Y462000D03*
X126000Y483000D03*
X68000Y462000D03*
X68000Y484000D03*
X20000Y391000D03*
X21000Y422000D03*
D23*
X262400Y177461D03*
X276407Y177470D03*
X262576Y205920D03*
X276252Y205920D03*
X276402Y191485D03*
X262412Y191476D03*
X290576Y205920D03*
X290693Y191789D03*
X290649Y177731D03*
X290576Y163420D03*
X276547Y163275D03*
X262460Y163420D03*
X247974Y163920D03*
X248076Y177420D03*
X248358Y191420D03*
D20*
X64000Y410088D03*
X54912Y410088D03*
X55000Y401000D03*
X146000Y398104D03*
X146000Y389000D03*
X136000Y389000D03*
D22*
X64000Y401000D03*
D24*
X64000Y410088D02*
X54912Y410088D01*
X55000Y401000D02*
X64000Y401000D01*
X136000Y389000D02*
X146000Y389000D01*
D20*
X136500Y398500D03*
D24*
X123912Y410088D02*
X64000Y410088D01*
X123912Y410088D02*
X136000Y398000D01*
X124000Y401000D02*
X64000Y401000D01*
X124000Y401000D02*
X136000Y389000D01*
X136500Y398500D02*
X145604Y398500D01*
X146000Y398104D01*
D25*
X655320Y384048D02*
X662940Y384048D01*
X672084Y374904D01*
X678180Y374904D01*
X655320Y384048D02*
X654500Y384100D01*
X678180Y374904D02*
X679260Y374692D01*
X608076Y256032D02*
X601980Y256032D01*
X608076Y256032D02*
X614172Y262128D01*
X614172Y263652D01*
X626364Y275844D01*
X641604Y275844D01*
X646176Y271272D01*
X652272Y271272D01*
X601980Y256032D02*
X601300Y255900D01*
X652272Y271272D02*
X653576Y270786D01*
X641604Y102108D02*
X641604Y83820D01*
X640660Y82340D01*
X641604Y102108D02*
X640400Y102660D01*
X640080Y82296D02*
X640080Y76200D01*
X623316Y59436D02*
X612648Y48768D01*
X623316Y59436D02*
X640080Y76200D01*
X612648Y48768D02*
X585216Y48768D01*
X579120Y42672D01*
X640080Y82296D02*
X640660Y82340D01*
X579120Y42672D02*
X578200Y41764D01*
X592836Y254508D02*
X600456Y254508D01*
X592836Y254508D02*
X588264Y249936D01*
X588264Y94488D01*
X623316Y59436D01*
X600456Y254508D02*
X601300Y255900D01*
X295656Y313944D02*
X265176Y283464D01*
X295656Y313944D02*
X298704Y313944D01*
X300200Y315000D01*
D22*
X161318Y283464D03*
D25*
X265176Y283464D01*
D20*
X440500Y296500D03*
X392000Y283000D03*
D21*
X427000Y283000D02*
X440500Y296500D01*
X427000Y283000D02*
X392000Y283000D01*
D25*
X54864Y332232D02*
X54864Y352044D01*
X54864Y332232D02*
X71628Y315468D01*
D22*
X114300Y272796D03*
X71628Y315468D03*
X54864Y352044D03*
D25*
X71628Y315468D02*
X79028Y308068D01*
X79514Y308068D01*
X83068Y304514D01*
X83068Y304028D01*
X114300Y272796D01*
X120396Y289560D02*
X132588Y301752D01*
X120396Y289560D02*
X120396Y262128D01*
X92964Y234696D01*
D22*
X132588Y301752D03*
X92964Y234696D03*
D25*
X80772Y256032D02*
X80772Y266700D01*
X80772Y256032D02*
X27432Y202692D01*
D22*
X80772Y266700D03*
X27432Y202692D03*
D25*
X132588Y265176D02*
X132588Y292608D01*
X132588Y265176D02*
X70104Y202692D01*
D22*
X132588Y292608D03*
X70104Y202692D03*
D25*
X96012Y152400D02*
X118872Y152400D01*
X96012Y152400D02*
X83820Y164592D01*
D22*
X118872Y152400D03*
X83820Y164592D03*
D25*
X118872Y176784D02*
X126492Y169164D01*
X118872Y176784D02*
X41148Y176784D01*
X39624Y175260D01*
D22*
X126492Y169164D03*
X39624Y175260D03*
D20*
X160000Y416000D03*
X160000Y369000D03*
D21*
X160000Y416000D01*
D25*
X318516Y269748D02*
X340948Y292180D01*
X350092Y292180D01*
X371856Y313944D01*
X374904Y313944D01*
X376400Y315000D01*
X516636Y70960D02*
X516636Y45720D01*
X516636Y70960D02*
X422148Y165448D01*
X422148Y170688D01*
X413004Y179832D01*
X405384Y179832D01*
X332232Y252984D01*
X332232Y256032D01*
X318516Y269748D01*
X516636Y45720D02*
X517700Y45400D01*
X441000Y320000D02*
X638000Y320000D01*
X646152Y308210D02*
X653576Y300786D01*
X646152Y308210D02*
X645148Y308210D01*
X640710Y312648D01*
X640710Y317290D01*
X638000Y320000D01*
X318516Y269748D02*
X266166Y217398D01*
X250023Y217398D01*
D22*
X210213Y175359D03*
D25*
X210213Y177588D02*
X250023Y217398D01*
X210213Y177588D02*
X210213Y175359D01*
D26*
X431123Y298330D02*
X436670Y303877D01*
X436670Y315670D02*
X441000Y320000D01*
X436670Y315670D02*
X436670Y303877D01*
X431123Y298330D02*
X393070Y298330D01*
X376400Y315000D01*
D25*
X326136Y345948D02*
X313944Y333756D01*
X326136Y348996D02*
X326136Y359664D01*
X326136Y348996D02*
X326136Y345948D01*
X326136Y359664D02*
X326316Y360076D01*
X638556Y335280D02*
X638556Y323088D01*
X638556Y335280D02*
X646176Y342900D01*
X665988Y342900D01*
X672084Y348996D01*
X678180Y348996D01*
X652272Y316992D02*
X653576Y315786D01*
X678180Y348996D02*
X679260Y349292D01*
X493776Y62484D02*
X493776Y45720D01*
X493776Y62484D02*
X441960Y114300D01*
X441960Y126492D01*
X492300Y45400D02*
X493776Y45720D01*
X438912Y323088D02*
X638556Y323088D01*
X438912Y323088D02*
X431292Y315468D01*
X428244Y315468D01*
X427200Y315000D01*
X326136Y348996D02*
X326316Y360076D01*
D22*
X441960Y126492D03*
D25*
X638556Y323088D02*
X638596Y323048D01*
X639263Y323048D01*
X645319Y316992D02*
X652272Y316992D01*
X645319Y316992D02*
X639263Y323048D01*
D22*
X203355Y168501D03*
D25*
X204145Y169291D02*
X204145Y177873D01*
X204145Y169291D02*
X203355Y168501D01*
X204145Y177873D02*
X313944Y287672D01*
X313944Y333756D01*
X36576Y361188D02*
X36576Y460248D01*
X36576Y361188D02*
X42672Y355092D01*
X42672Y266700D01*
X36576Y260604D01*
X214884Y220980D02*
X227076Y220980D01*
X214884Y220980D02*
X138684Y297180D01*
X138684Y304800D01*
X85344Y358140D01*
X45720Y358140D01*
X42672Y355092D01*
D22*
X36576Y460248D03*
X36576Y260604D03*
X227076Y220980D03*
D25*
X36576Y336804D02*
X36576Y352044D01*
X36576Y336804D02*
X22860Y323088D01*
D22*
X36576Y352044D03*
X22860Y323088D03*
D25*
X627888Y254508D02*
X652272Y254508D01*
X627888Y254508D02*
X626840Y255900D01*
X652272Y254508D02*
X653576Y255786D01*
X621792Y102108D02*
X621792Y83820D01*
X621660Y82340D01*
X621792Y102108D02*
X621400Y102660D01*
X621792Y114300D02*
X621792Y169164D01*
X621792Y114300D02*
X621792Y103632D01*
X621792Y169164D02*
X630936Y178308D01*
X630936Y179832D01*
X632460Y181356D01*
X632460Y190500D01*
X621792Y103632D02*
X621400Y102660D01*
X632460Y190500D02*
X632576Y190786D01*
X652272Y70104D02*
X679704Y42672D01*
X652272Y70104D02*
X652272Y111252D01*
X649224Y114300D01*
X621792Y114300D01*
X679704Y42672D02*
X679800Y41764D01*
X609600Y234696D02*
X601980Y234696D01*
X609600Y234696D02*
X614172Y230124D01*
X614172Y228600D01*
X621792Y220980D01*
X641604Y220980D01*
X646176Y225552D01*
X652272Y225552D01*
X601980Y234696D02*
X601300Y235900D01*
X652272Y225552D02*
X653576Y225786D01*
X641604Y236220D02*
X627888Y236220D01*
X641604Y236220D02*
X644652Y239268D01*
X652272Y239268D01*
X627888Y236220D02*
X626840Y235900D01*
X652272Y239268D02*
X653576Y240786D01*
X326136Y251460D02*
X304800Y251460D01*
D22*
X326136Y251460D03*
D25*
X304800Y251460D02*
X267690Y214350D01*
X257785Y214350D01*
X148039Y104604D01*
D22*
X147924Y104604D03*
D25*
X148039Y104604D01*
M02*
