G04 EAGLE Gerber RS-274X export*
G75*
%MOMM*%
%FSLAX34Y34*%
%LPD*%
%IN*%
%IPPOS*%
%AMOC8*
5,1,8,0,0,1.08239X$1,22.5*%
G01*
G04 Define Apertures*
%ADD10C,0.254000*%
D10*
X-30000Y20000D02*
X730000Y20000D01*
X730000Y500000D01*
X-30000Y500000D01*
X-30000Y20000D01*
X49700Y425900D02*
X49711Y425639D01*
X49746Y425379D01*
X49802Y425124D01*
X49881Y424874D01*
X49981Y424632D01*
X50102Y424400D01*
X50243Y424179D01*
X50402Y423972D01*
X50579Y423779D01*
X50772Y423602D01*
X50979Y423443D01*
X51200Y423302D01*
X51432Y423181D01*
X51674Y423081D01*
X51924Y423002D01*
X52179Y422946D01*
X52439Y422911D01*
X52700Y422900D01*
X52961Y422911D01*
X53221Y422946D01*
X53476Y423002D01*
X53726Y423081D01*
X53968Y423181D01*
X54200Y423302D01*
X54421Y423443D01*
X54628Y423602D01*
X54821Y423779D01*
X54998Y423972D01*
X55157Y424179D01*
X55298Y424400D01*
X55419Y424632D01*
X55519Y424874D01*
X55598Y425124D01*
X55654Y425379D01*
X55689Y425639D01*
X55700Y425900D01*
X55700Y436900D01*
X55689Y437161D01*
X55654Y437421D01*
X55598Y437676D01*
X55519Y437926D01*
X55419Y438168D01*
X55298Y438400D01*
X55157Y438621D01*
X54998Y438828D01*
X54821Y439021D01*
X54628Y439198D01*
X54421Y439357D01*
X54200Y439498D01*
X53968Y439619D01*
X53726Y439719D01*
X53476Y439798D01*
X53221Y439854D01*
X52961Y439889D01*
X52700Y439900D01*
X52439Y439889D01*
X52179Y439854D01*
X51924Y439798D01*
X51674Y439719D01*
X51432Y439619D01*
X51200Y439498D01*
X50979Y439357D01*
X50772Y439198D01*
X50579Y439021D01*
X50402Y438828D01*
X50243Y438621D01*
X50102Y438400D01*
X49981Y438168D01*
X49881Y437926D01*
X49802Y437676D01*
X49746Y437421D01*
X49711Y437161D01*
X49700Y436900D01*
X49700Y425900D01*
X136100Y425900D02*
X136111Y425639D01*
X136146Y425379D01*
X136202Y425124D01*
X136281Y424874D01*
X136381Y424632D01*
X136502Y424400D01*
X136643Y424179D01*
X136802Y423972D01*
X136979Y423779D01*
X137172Y423602D01*
X137379Y423443D01*
X137600Y423302D01*
X137832Y423181D01*
X138074Y423081D01*
X138324Y423002D01*
X138579Y422946D01*
X138839Y422911D01*
X139100Y422900D01*
X139361Y422911D01*
X139621Y422946D01*
X139876Y423002D01*
X140126Y423081D01*
X140368Y423181D01*
X140600Y423302D01*
X140821Y423443D01*
X141028Y423602D01*
X141221Y423779D01*
X141398Y423972D01*
X141557Y424179D01*
X141698Y424400D01*
X141819Y424632D01*
X141919Y424874D01*
X141998Y425124D01*
X142054Y425379D01*
X142089Y425639D01*
X142100Y425900D01*
X142100Y436900D01*
X142089Y437161D01*
X142054Y437421D01*
X141998Y437676D01*
X141919Y437926D01*
X141819Y438168D01*
X141698Y438400D01*
X141557Y438621D01*
X141398Y438828D01*
X141221Y439021D01*
X141028Y439198D01*
X140821Y439357D01*
X140600Y439498D01*
X140368Y439619D01*
X140126Y439719D01*
X139876Y439798D01*
X139621Y439854D01*
X139361Y439889D01*
X139100Y439900D01*
X138839Y439889D01*
X138579Y439854D01*
X138324Y439798D01*
X138074Y439719D01*
X137832Y439619D01*
X137600Y439498D01*
X137379Y439357D01*
X137172Y439198D01*
X136979Y439021D01*
X136802Y438828D01*
X136643Y438621D01*
X136502Y438400D01*
X136381Y438168D01*
X136281Y437926D01*
X136202Y437676D01*
X136146Y437421D01*
X136111Y437161D01*
X136100Y436900D01*
X136100Y425900D01*
X49700Y469200D02*
X49711Y468939D01*
X49746Y468679D01*
X49802Y468424D01*
X49881Y468174D01*
X49981Y467932D01*
X50102Y467700D01*
X50243Y467479D01*
X50402Y467272D01*
X50579Y467079D01*
X50772Y466902D01*
X50979Y466743D01*
X51200Y466602D01*
X51432Y466481D01*
X51674Y466381D01*
X51924Y466302D01*
X52179Y466246D01*
X52439Y466211D01*
X52700Y466200D01*
X52961Y466211D01*
X53221Y466246D01*
X53476Y466302D01*
X53726Y466381D01*
X53968Y466481D01*
X54200Y466602D01*
X54421Y466743D01*
X54628Y466902D01*
X54821Y467079D01*
X54998Y467272D01*
X55157Y467479D01*
X55298Y467700D01*
X55419Y467932D01*
X55519Y468174D01*
X55598Y468424D01*
X55654Y468679D01*
X55689Y468939D01*
X55700Y469200D01*
X55700Y477200D01*
X55689Y477461D01*
X55654Y477721D01*
X55598Y477976D01*
X55519Y478226D01*
X55419Y478468D01*
X55298Y478700D01*
X55157Y478921D01*
X54998Y479128D01*
X54821Y479321D01*
X54628Y479498D01*
X54421Y479657D01*
X54200Y479798D01*
X53968Y479919D01*
X53726Y480019D01*
X53476Y480098D01*
X53221Y480154D01*
X52961Y480189D01*
X52700Y480200D01*
X52439Y480189D01*
X52179Y480154D01*
X51924Y480098D01*
X51674Y480019D01*
X51432Y479919D01*
X51200Y479798D01*
X50979Y479657D01*
X50772Y479498D01*
X50579Y479321D01*
X50402Y479128D01*
X50243Y478921D01*
X50102Y478700D01*
X49981Y478468D01*
X49881Y478226D01*
X49802Y477976D01*
X49746Y477721D01*
X49711Y477461D01*
X49700Y477200D01*
X49700Y469200D01*
X136100Y469200D02*
X136111Y468939D01*
X136146Y468679D01*
X136202Y468424D01*
X136281Y468174D01*
X136381Y467932D01*
X136502Y467700D01*
X136643Y467479D01*
X136802Y467272D01*
X136979Y467079D01*
X137172Y466902D01*
X137379Y466743D01*
X137600Y466602D01*
X137832Y466481D01*
X138074Y466381D01*
X138324Y466302D01*
X138579Y466246D01*
X138839Y466211D01*
X139100Y466200D01*
X139361Y466211D01*
X139621Y466246D01*
X139876Y466302D01*
X140126Y466381D01*
X140368Y466481D01*
X140600Y466602D01*
X140821Y466743D01*
X141028Y466902D01*
X141221Y467079D01*
X141398Y467272D01*
X141557Y467479D01*
X141698Y467700D01*
X141819Y467932D01*
X141919Y468174D01*
X141998Y468424D01*
X142054Y468679D01*
X142089Y468939D01*
X142100Y469200D01*
X142100Y477200D01*
X142089Y477461D01*
X142054Y477721D01*
X141998Y477976D01*
X141919Y478226D01*
X141819Y478468D01*
X141698Y478700D01*
X141557Y478921D01*
X141398Y479128D01*
X141221Y479321D01*
X141028Y479498D01*
X140821Y479657D01*
X140600Y479798D01*
X140368Y479919D01*
X140126Y480019D01*
X139876Y480098D01*
X139621Y480154D01*
X139361Y480189D01*
X139100Y480200D01*
X138839Y480189D01*
X138579Y480154D01*
X138324Y480098D01*
X138074Y480019D01*
X137832Y479919D01*
X137600Y479798D01*
X137379Y479657D01*
X137172Y479498D01*
X136979Y479321D01*
X136802Y479128D01*
X136643Y478921D01*
X136502Y478700D01*
X136381Y478468D01*
X136281Y478226D01*
X136202Y477976D01*
X136146Y477721D01*
X136111Y477461D01*
X136100Y477200D01*
X136100Y469200D01*
M02*
