G04 EAGLE Gerber RS-274X export*
G75*
%MOMM*%
%FSLAX34Y34*%
%LPD*%
%INSilkscreen Bottom*%
%IPPOS*%
%AMOC8*
5,1,8,0,0,1.08239X$1,22.5*%
G01*
G04 Define Apertures*
G36*
X638859Y120000D02*
X635656Y120000D01*
X635324Y120009D01*
X635010Y120037D01*
X634716Y120082D01*
X634439Y120146D01*
X634182Y120229D01*
X633944Y120329D01*
X633724Y120448D01*
X633522Y120585D01*
X633343Y120739D01*
X633187Y120907D01*
X633055Y121090D01*
X632947Y121287D01*
X632863Y121499D01*
X632803Y121726D01*
X632767Y121967D01*
X632755Y122223D01*
X632763Y122416D01*
X632787Y122601D01*
X632827Y122777D01*
X632883Y122945D01*
X632954Y123104D01*
X633042Y123255D01*
X633145Y123397D01*
X633265Y123531D01*
X633337Y123597D01*
X633399Y123654D01*
X633547Y123764D01*
X633708Y123862D01*
X633882Y123947D01*
X634070Y124020D01*
X634272Y124079D01*
X634487Y124126D01*
X634715Y124161D01*
X634377Y124262D01*
X634080Y124402D01*
X633823Y124581D01*
X633774Y124630D01*
X633606Y124799D01*
X633435Y125051D01*
X633312Y125331D01*
X633239Y125639D01*
X633221Y125804D01*
X633214Y125975D01*
X633225Y126207D01*
X633258Y126424D01*
X633312Y126626D01*
X633388Y126813D01*
X633486Y126985D01*
X633605Y127142D01*
X633746Y127284D01*
X633909Y127412D01*
X634093Y127524D01*
X634299Y127621D01*
X634527Y127703D01*
X634777Y127771D01*
X635048Y127823D01*
X635341Y127860D01*
X635656Y127883D01*
X635992Y127890D01*
X638859Y127890D01*
X638859Y120000D01*
G37*
%LPC*%
G36*
X637790Y120857D02*
X637790Y123702D01*
X635796Y123702D01*
X635337Y123680D01*
X634939Y123614D01*
X634762Y123565D01*
X634602Y123505D01*
X634456Y123435D01*
X634326Y123353D01*
X634211Y123260D01*
X634112Y123157D01*
X634027Y123043D01*
X633959Y122917D01*
X633905Y122781D01*
X633867Y122634D01*
X633844Y122476D01*
X633836Y122307D01*
X633843Y122132D01*
X633864Y121968D01*
X633899Y121816D01*
X633948Y121674D01*
X634011Y121544D01*
X634088Y121425D01*
X634179Y121317D01*
X634284Y121221D01*
X634404Y121135D01*
X634541Y121062D01*
X634695Y120999D01*
X634865Y120948D01*
X635052Y120908D01*
X635255Y120880D01*
X635712Y120857D01*
X637790Y120857D01*
G37*
G36*
X637790Y124536D02*
X637790Y127034D01*
X635992Y127034D01*
X635602Y127016D01*
X635261Y126965D01*
X634969Y126879D01*
X634726Y126759D01*
X634624Y126685D01*
X634535Y126599D01*
X634460Y126502D01*
X634399Y126394D01*
X634351Y126274D01*
X634317Y126143D01*
X634296Y126000D01*
X634290Y125846D01*
X634296Y125685D01*
X634316Y125535D01*
X634349Y125395D01*
X634395Y125266D01*
X634455Y125148D01*
X634527Y125041D01*
X634613Y124944D01*
X634712Y124858D01*
X634951Y124717D01*
X635244Y124616D01*
X635591Y124556D01*
X635992Y124536D01*
X637790Y124536D01*
G37*
%LPD*%
G36*
X631203Y120000D02*
X626146Y120000D01*
X626146Y120874D01*
X630133Y120874D01*
X630133Y127890D01*
X631203Y127890D01*
X631203Y120000D01*
G37*
G36*
X625944Y214719D02*
X625650Y214729D01*
X625371Y214759D01*
X625108Y214809D01*
X624859Y214878D01*
X624625Y214968D01*
X624405Y215078D01*
X624201Y215208D01*
X624012Y215357D01*
X623841Y215523D01*
X623693Y215703D01*
X623568Y215896D01*
X623466Y216102D01*
X623386Y216321D01*
X623329Y216554D01*
X623295Y216800D01*
X623284Y217060D01*
X623303Y217378D01*
X623360Y217683D01*
X623455Y217974D01*
X623589Y218252D01*
X623754Y218504D01*
X623944Y218716D01*
X624158Y218888D01*
X624398Y219020D01*
X624035Y219007D01*
X623693Y218980D01*
X623373Y218939D01*
X623075Y218884D01*
X622798Y218814D01*
X622543Y218731D01*
X622309Y218633D01*
X622096Y218521D01*
X621907Y218396D01*
X621744Y218259D01*
X621605Y218109D01*
X621492Y217947D01*
X621403Y217773D01*
X621340Y217587D01*
X621303Y217388D01*
X621290Y217177D01*
X621305Y216931D01*
X621352Y216708D01*
X621429Y216507D01*
X621536Y216329D01*
X621675Y216174D01*
X621844Y216041D01*
X622045Y215931D01*
X622276Y215844D01*
X622124Y214881D01*
X621720Y215021D01*
X621376Y215201D01*
X621226Y215306D01*
X621092Y215420D01*
X620972Y215545D01*
X620867Y215679D01*
X620776Y215824D01*
X620697Y215981D01*
X620630Y216149D01*
X620575Y216328D01*
X620533Y216519D01*
X620502Y216721D01*
X620484Y216935D01*
X620478Y217160D01*
X620495Y217494D01*
X620546Y217807D01*
X620632Y218101D01*
X620751Y218375D01*
X620905Y218629D01*
X621092Y218864D01*
X621314Y219079D01*
X621570Y219274D01*
X621858Y219448D01*
X622175Y219599D01*
X622521Y219727D01*
X622897Y219831D01*
X623302Y219912D01*
X623737Y219970D01*
X624201Y220005D01*
X624695Y220016D01*
X625168Y220006D01*
X625611Y219974D01*
X626023Y219921D01*
X626404Y219847D01*
X626755Y219752D01*
X627075Y219635D01*
X627365Y219498D01*
X627624Y219339D01*
X627852Y219159D01*
X628050Y218960D01*
X628217Y218741D01*
X628354Y218502D01*
X628461Y218242D01*
X628537Y217963D01*
X628583Y217664D01*
X628598Y217345D01*
X628587Y217044D01*
X628554Y216760D01*
X628498Y216493D01*
X628421Y216243D01*
X628321Y216010D01*
X628199Y215794D01*
X628056Y215595D01*
X627890Y215413D01*
X627704Y215250D01*
X627502Y215109D01*
X627284Y214990D01*
X627049Y214892D01*
X626797Y214816D01*
X626529Y214762D01*
X626245Y214730D01*
X625944Y214719D01*
G37*
%LPC*%
G36*
X625944Y215744D02*
X626150Y215750D01*
X626344Y215770D01*
X626529Y215803D01*
X626702Y215849D01*
X626864Y215908D01*
X627015Y215980D01*
X627155Y216065D01*
X627285Y216164D01*
X627401Y216273D01*
X627502Y216393D01*
X627587Y216522D01*
X627656Y216661D01*
X627711Y216809D01*
X627749Y216967D01*
X627773Y217134D01*
X627780Y217312D01*
X627771Y217490D01*
X627744Y217660D01*
X627699Y217820D01*
X627635Y217971D01*
X627554Y218113D01*
X627454Y218245D01*
X627337Y218368D01*
X627201Y218482D01*
X627050Y218584D01*
X626888Y218673D01*
X626714Y218748D01*
X626528Y218810D01*
X626331Y218857D01*
X626122Y218892D01*
X625901Y218912D01*
X625669Y218919D01*
X625443Y218905D01*
X625230Y218865D01*
X625029Y218798D01*
X624840Y218703D01*
X624669Y218585D01*
X624518Y218448D01*
X624387Y218290D01*
X624278Y218112D01*
X624191Y217921D01*
X624128Y217722D01*
X624091Y217515D01*
X624079Y217300D01*
X624087Y217126D01*
X624110Y216961D01*
X624149Y216805D01*
X624204Y216658D01*
X624275Y216520D01*
X624361Y216392D01*
X624463Y216273D01*
X624580Y216164D01*
X624711Y216065D01*
X624853Y215980D01*
X625007Y215908D01*
X625171Y215849D01*
X625348Y215803D01*
X625535Y215770D01*
X625734Y215750D01*
X625944Y215744D01*
G37*
%LPD*%
G36*
X624572Y206482D02*
X624262Y206490D01*
X623963Y206511D01*
X623674Y206547D01*
X623396Y206596D01*
X623129Y206661D01*
X622872Y206739D01*
X622626Y206832D01*
X622390Y206939D01*
X622167Y207059D01*
X621956Y207193D01*
X621759Y207339D01*
X621576Y207499D01*
X621405Y207671D01*
X621248Y207856D01*
X621104Y208055D01*
X620974Y208266D01*
X620857Y208489D01*
X620757Y208722D01*
X620672Y208964D01*
X620602Y209217D01*
X620548Y209480D01*
X620509Y209753D01*
X620486Y210036D01*
X620478Y210330D01*
X620486Y210616D01*
X620511Y210894D01*
X620553Y211163D01*
X620611Y211424D01*
X620686Y211675D01*
X620777Y211918D01*
X620885Y212151D01*
X621010Y212376D01*
X621151Y212591D01*
X621306Y212793D01*
X621478Y212982D01*
X621664Y213160D01*
X621865Y213325D01*
X622082Y213477D01*
X622314Y213618D01*
X622561Y213746D01*
X622998Y212872D01*
X622613Y212651D01*
X622280Y212403D01*
X621998Y212130D01*
X621767Y211832D01*
X621588Y211507D01*
X621460Y211157D01*
X621415Y210973D01*
X621383Y210782D01*
X621364Y210584D01*
X621357Y210380D01*
X621371Y210065D01*
X621412Y209767D01*
X621481Y209485D01*
X621578Y209220D01*
X621702Y208972D01*
X621853Y208740D01*
X622032Y208526D01*
X622239Y208328D01*
X622469Y208150D01*
X622716Y207996D01*
X622981Y207865D01*
X623263Y207758D01*
X623564Y207675D01*
X623882Y207616D01*
X624218Y207581D01*
X624572Y207569D01*
X624929Y207580D01*
X625266Y207614D01*
X625584Y207671D01*
X625883Y207751D01*
X626162Y207853D01*
X626421Y207978D01*
X626661Y208126D01*
X626882Y208297D01*
X627079Y208488D01*
X627250Y208697D01*
X627395Y208925D01*
X627514Y209170D01*
X627606Y209434D01*
X627672Y209716D01*
X627711Y210017D01*
X627724Y210335D01*
X627702Y210738D01*
X627633Y211113D01*
X627520Y211459D01*
X627360Y211777D01*
X627158Y212060D01*
X626915Y212301D01*
X626632Y212501D01*
X626308Y212659D01*
X626644Y213673D01*
X626878Y213566D01*
X627098Y213446D01*
X627303Y213312D01*
X627493Y213163D01*
X627669Y213001D01*
X627829Y212824D01*
X627975Y212634D01*
X628105Y212430D01*
X628221Y212212D01*
X628321Y211981D01*
X628405Y211737D01*
X628475Y211480D01*
X628529Y211211D01*
X628567Y210928D01*
X628590Y210633D01*
X628598Y210324D01*
X628581Y209885D01*
X628531Y209471D01*
X628448Y209082D01*
X628331Y208717D01*
X628180Y208376D01*
X627996Y208060D01*
X627779Y207769D01*
X627528Y207502D01*
X627248Y207263D01*
X626942Y207056D01*
X626611Y206881D01*
X626254Y206737D01*
X625872Y206626D01*
X625464Y206546D01*
X625031Y206498D01*
X624572Y206482D01*
G37*
G36*
X656570Y413173D02*
X656088Y413184D01*
X655635Y413216D01*
X655213Y413269D01*
X654820Y413344D01*
X654457Y413440D01*
X654123Y413557D01*
X653820Y413696D01*
X653546Y413856D01*
X653303Y414038D01*
X653093Y414240D01*
X652915Y414464D01*
X652769Y414709D01*
X652656Y414975D01*
X652575Y415262D01*
X652526Y415571D01*
X652510Y415900D01*
X652526Y416230D01*
X652575Y416539D01*
X652656Y416827D01*
X652770Y417095D01*
X652917Y417342D01*
X653096Y417568D01*
X653307Y417774D01*
X653552Y417958D01*
X653827Y418122D01*
X654131Y418263D01*
X654464Y418383D01*
X654827Y418481D01*
X655219Y418557D01*
X655640Y418612D01*
X656090Y418644D01*
X656570Y418655D01*
X657057Y418645D01*
X657514Y418614D01*
X657939Y418562D01*
X658334Y418489D01*
X658698Y418396D01*
X659031Y418282D01*
X659334Y418147D01*
X659605Y417992D01*
X659845Y417814D01*
X660054Y417614D01*
X660230Y417391D01*
X660374Y417145D01*
X660486Y416877D01*
X660566Y416585D01*
X660614Y416271D01*
X660630Y415934D01*
X660614Y415587D01*
X660567Y415265D01*
X660487Y414967D01*
X660377Y414693D01*
X660234Y414443D01*
X660060Y414217D01*
X659854Y414015D01*
X659616Y413837D01*
X659347Y413681D01*
X659046Y413546D01*
X658713Y413432D01*
X658348Y413339D01*
X657951Y413266D01*
X657523Y413214D01*
X657062Y413183D01*
X656570Y413173D01*
G37*
%LPC*%
G36*
X656570Y414192D02*
X656987Y414199D01*
X657374Y414218D01*
X657731Y414249D01*
X658057Y414294D01*
X658352Y414351D01*
X658617Y414421D01*
X658852Y414503D01*
X659056Y414598D01*
X659234Y414708D01*
X659387Y414834D01*
X659517Y414976D01*
X659623Y415135D01*
X659706Y415310D01*
X659765Y415502D01*
X659801Y415710D01*
X659812Y415934D01*
X659800Y416153D01*
X659764Y416355D01*
X659704Y416542D01*
X659621Y416713D01*
X659513Y416868D01*
X659381Y417006D01*
X659225Y417129D01*
X659045Y417236D01*
X658839Y417328D01*
X658603Y417409D01*
X658337Y417476D01*
X658043Y417532D01*
X657719Y417575D01*
X657365Y417606D01*
X656982Y417624D01*
X656570Y417631D01*
X656172Y417624D01*
X655800Y417605D01*
X655455Y417572D01*
X655136Y417527D01*
X654844Y417469D01*
X654579Y417397D01*
X654340Y417313D01*
X654128Y417216D01*
X653942Y417105D01*
X653780Y416979D01*
X653644Y416838D01*
X653532Y416683D01*
X653445Y416512D01*
X653383Y416327D01*
X653346Y416127D01*
X653333Y415911D01*
X653345Y415695D01*
X653382Y415494D01*
X653443Y415308D01*
X653528Y415136D01*
X653637Y414981D01*
X653771Y414840D01*
X653929Y414714D01*
X654112Y414604D01*
X654320Y414507D01*
X654557Y414424D01*
X654822Y414353D01*
X655115Y414295D01*
X655437Y414250D01*
X655786Y414218D01*
X656164Y414199D01*
X656570Y414192D01*
G37*
%LPD*%
G36*
X656604Y398651D02*
X656294Y398658D01*
X655995Y398680D01*
X655706Y398715D01*
X655428Y398765D01*
X655161Y398829D01*
X654904Y398908D01*
X654658Y399001D01*
X654422Y399108D01*
X654199Y399228D01*
X653988Y399362D01*
X653791Y399508D01*
X653608Y399668D01*
X653437Y399840D01*
X653280Y400025D01*
X653136Y400224D01*
X653006Y400435D01*
X652889Y400657D01*
X652789Y400890D01*
X652704Y401133D01*
X652634Y401386D01*
X652580Y401649D01*
X652541Y401922D01*
X652518Y402205D01*
X652510Y402498D01*
X652518Y402785D01*
X652543Y403063D01*
X652585Y403332D01*
X652643Y403592D01*
X652718Y403844D01*
X652809Y404086D01*
X652917Y404320D01*
X653042Y404545D01*
X653183Y404759D01*
X653338Y404961D01*
X653510Y405151D01*
X653696Y405328D01*
X653897Y405493D01*
X654114Y405646D01*
X654346Y405786D01*
X654593Y405914D01*
X655030Y405041D01*
X654645Y404819D01*
X654312Y404572D01*
X654030Y404299D01*
X653799Y404001D01*
X653620Y403676D01*
X653492Y403326D01*
X653447Y403141D01*
X653415Y402950D01*
X653396Y402753D01*
X653389Y402549D01*
X653403Y402234D01*
X653444Y401935D01*
X653513Y401654D01*
X653610Y401389D01*
X653734Y401141D01*
X653885Y400909D01*
X654064Y400694D01*
X654271Y400496D01*
X654501Y400318D01*
X654748Y400164D01*
X655013Y400034D01*
X655295Y399927D01*
X655596Y399844D01*
X655914Y399785D01*
X656250Y399749D01*
X656604Y399738D01*
X656961Y399749D01*
X657298Y399783D01*
X657616Y399840D01*
X657915Y399920D01*
X658194Y400022D01*
X658453Y400147D01*
X658693Y400295D01*
X658914Y400466D01*
X659111Y400657D01*
X659282Y400866D01*
X659427Y401093D01*
X659546Y401339D01*
X659638Y401603D01*
X659704Y401885D01*
X659743Y402185D01*
X659756Y402504D01*
X659734Y402907D01*
X659665Y403282D01*
X659552Y403628D01*
X659392Y403946D01*
X659190Y404229D01*
X658947Y404470D01*
X658664Y404670D01*
X658340Y404828D01*
X658676Y405842D01*
X658910Y405735D01*
X659130Y405615D01*
X659335Y405480D01*
X659525Y405332D01*
X659701Y405170D01*
X659861Y404993D01*
X660007Y404803D01*
X660137Y404598D01*
X660253Y404380D01*
X660353Y404150D01*
X660437Y403906D01*
X660507Y403649D01*
X660561Y403379D01*
X660599Y403097D01*
X660622Y402801D01*
X660630Y402493D01*
X660613Y402054D01*
X660563Y401640D01*
X660480Y401251D01*
X660363Y400886D01*
X660212Y400545D01*
X660028Y400229D01*
X659811Y399937D01*
X659560Y399670D01*
X659280Y399431D01*
X658974Y399224D01*
X658643Y399049D01*
X658286Y398906D01*
X657904Y398794D01*
X657496Y398715D01*
X657063Y398667D01*
X656604Y398651D01*
G37*
G36*
X653479Y407224D02*
X652622Y407224D01*
X652622Y412168D01*
X653479Y412168D01*
X653479Y410248D01*
X660512Y410248D01*
X660512Y409318D01*
X659230Y407453D01*
X658278Y407453D01*
X659549Y409234D01*
X653479Y409234D01*
X653479Y407224D01*
G37*
G36*
X598404Y271295D02*
X598094Y271302D01*
X597795Y271323D01*
X597506Y271359D01*
X597228Y271409D01*
X596961Y271473D01*
X596704Y271552D01*
X596458Y271644D01*
X596222Y271751D01*
X595999Y271872D01*
X595788Y272005D01*
X595591Y272152D01*
X595408Y272311D01*
X595237Y272484D01*
X595080Y272669D01*
X594936Y272867D01*
X594806Y273078D01*
X594689Y273301D01*
X594589Y273534D01*
X594504Y273777D01*
X594434Y274030D01*
X594380Y274293D01*
X594341Y274566D01*
X594318Y274849D01*
X594310Y275142D01*
X594318Y275429D01*
X594343Y275707D01*
X594385Y275976D01*
X594443Y276236D01*
X594518Y276488D01*
X594609Y276730D01*
X594717Y276964D01*
X594842Y277189D01*
X594983Y277403D01*
X595138Y277605D01*
X595310Y277795D01*
X595496Y277972D01*
X595697Y278137D01*
X595914Y278290D01*
X596146Y278430D01*
X596393Y278558D01*
X596830Y277684D01*
X596445Y277463D01*
X596112Y277216D01*
X595830Y276943D01*
X595599Y276644D01*
X595420Y276320D01*
X595292Y275970D01*
X595247Y275785D01*
X595215Y275594D01*
X595196Y275396D01*
X595189Y275192D01*
X595203Y274877D01*
X595244Y274579D01*
X595313Y274297D01*
X595410Y274033D01*
X595534Y273784D01*
X595685Y273553D01*
X595864Y273338D01*
X596071Y273140D01*
X596301Y272962D01*
X596548Y272808D01*
X596813Y272678D01*
X597095Y272571D01*
X597396Y272488D01*
X597714Y272429D01*
X598050Y272393D01*
X598404Y272381D01*
X598761Y272393D01*
X599098Y272427D01*
X599416Y272484D01*
X599715Y272563D01*
X599994Y272666D01*
X600253Y272791D01*
X600493Y272939D01*
X600714Y273109D01*
X600911Y273300D01*
X601082Y273510D01*
X601227Y273737D01*
X601346Y273983D01*
X601438Y274247D01*
X601504Y274529D01*
X601543Y274829D01*
X601556Y275148D01*
X601534Y275551D01*
X601465Y275925D01*
X601352Y276272D01*
X601192Y276590D01*
X600990Y276873D01*
X600747Y277114D01*
X600464Y277314D01*
X600140Y277472D01*
X600476Y278485D01*
X600710Y278379D01*
X600930Y278258D01*
X601135Y278124D01*
X601325Y277976D01*
X601501Y277813D01*
X601661Y277637D01*
X601807Y277446D01*
X601937Y277242D01*
X602053Y277024D01*
X602153Y276793D01*
X602237Y276550D01*
X602307Y276293D01*
X602361Y276023D01*
X602399Y275741D01*
X602422Y275445D01*
X602430Y275136D01*
X602413Y274698D01*
X602363Y274284D01*
X602280Y273894D01*
X602163Y273529D01*
X602012Y273189D01*
X601828Y272873D01*
X601611Y272581D01*
X601360Y272314D01*
X601080Y272075D01*
X600774Y271868D01*
X600443Y271693D01*
X600086Y271550D01*
X599704Y271438D01*
X599296Y271359D01*
X598863Y271311D01*
X598404Y271295D01*
G37*
G36*
X595279Y279867D02*
X594422Y279867D01*
X594422Y284812D01*
X595279Y284812D01*
X595279Y282891D01*
X602312Y282891D01*
X602312Y281962D01*
X601030Y280097D01*
X600078Y280097D01*
X601349Y281878D01*
X595279Y281878D01*
X595279Y279867D01*
G37*
G36*
X595279Y285399D02*
X594422Y285399D01*
X594422Y290343D01*
X595279Y290343D01*
X595279Y288423D01*
X602312Y288423D01*
X602312Y287493D01*
X601030Y285628D01*
X600078Y285628D01*
X601349Y287409D01*
X595279Y287409D01*
X595279Y285399D01*
G37*
G36*
X680992Y75040D02*
X679760Y75040D01*
X681046Y76992D01*
X682000Y78439D01*
X681780Y78485D01*
X681573Y78545D01*
X681378Y78619D01*
X681195Y78707D01*
X681096Y78766D01*
X681025Y78808D01*
X680866Y78923D01*
X680720Y79052D01*
X680586Y79195D01*
X680466Y79349D01*
X680361Y79512D01*
X680273Y79684D01*
X680201Y79864D01*
X680145Y80054D01*
X680105Y80251D01*
X680081Y80458D01*
X680073Y80674D01*
X680085Y80932D01*
X680119Y81176D01*
X680175Y81406D01*
X680255Y81621D01*
X680357Y81821D01*
X680481Y82007D01*
X680628Y82178D01*
X680798Y82334D01*
X680989Y82474D01*
X681199Y82595D01*
X681428Y82697D01*
X681676Y82781D01*
X681942Y82846D01*
X682228Y82893D01*
X682533Y82921D01*
X682856Y82930D01*
X686569Y82930D01*
X686569Y75040D01*
X685500Y75040D01*
X685500Y78316D01*
X683041Y78316D01*
X680992Y75040D01*
G37*
%LPC*%
G36*
X685500Y79162D02*
X685500Y82074D01*
X682963Y82074D01*
X682549Y82051D01*
X682187Y81983D01*
X681876Y81870D01*
X681739Y81797D01*
X681616Y81712D01*
X681506Y81617D01*
X681411Y81511D01*
X681331Y81395D01*
X681265Y81269D01*
X681214Y81133D01*
X681178Y80986D01*
X681156Y80829D01*
X681148Y80662D01*
X681156Y80490D01*
X681177Y80327D01*
X681213Y80173D01*
X681264Y80030D01*
X681329Y79897D01*
X681408Y79774D01*
X681502Y79660D01*
X681610Y79556D01*
X681732Y79464D01*
X681865Y79384D01*
X682011Y79316D01*
X682168Y79260D01*
X682338Y79217D01*
X682519Y79186D01*
X682713Y79168D01*
X682918Y79162D01*
X685500Y79162D01*
G37*
%LPD*%
G36*
X669527Y74928D02*
X669237Y74939D01*
X668963Y74973D01*
X668705Y75030D01*
X668463Y75109D01*
X668238Y75210D01*
X668028Y75334D01*
X667834Y75481D01*
X667657Y75650D01*
X667498Y75839D01*
X667361Y76044D01*
X667244Y76266D01*
X667149Y76504D01*
X667075Y76759D01*
X667022Y77030D01*
X666990Y77318D01*
X666979Y77622D01*
X666989Y77903D01*
X667019Y78169D01*
X667070Y78421D01*
X667140Y78658D01*
X667230Y78880D01*
X667340Y79087D01*
X667470Y79280D01*
X667621Y79458D01*
X667788Y79619D01*
X667969Y79757D01*
X668165Y79875D01*
X668375Y79971D01*
X668598Y80046D01*
X668836Y80099D01*
X669088Y80131D01*
X669354Y80142D01*
X669667Y80125D01*
X669961Y80075D01*
X670238Y79992D01*
X670496Y79876D01*
X670731Y79727D01*
X670939Y79549D01*
X671118Y79340D01*
X671269Y79100D01*
X671262Y79470D01*
X671239Y79817D01*
X671202Y80141D01*
X671151Y80443D01*
X671084Y80723D01*
X671003Y80980D01*
X670907Y81215D01*
X670796Y81427D01*
X670671Y81615D01*
X670535Y81778D01*
X670386Y81916D01*
X670225Y82029D01*
X670052Y82117D01*
X669867Y82180D01*
X669670Y82218D01*
X669460Y82230D01*
X669221Y82215D01*
X669003Y82170D01*
X668808Y82095D01*
X668634Y81990D01*
X668483Y81854D01*
X668354Y81689D01*
X668246Y81493D01*
X668161Y81267D01*
X667198Y81441D01*
X667335Y81817D01*
X667513Y82144D01*
X667732Y82420D01*
X667993Y82646D01*
X668139Y82740D01*
X668295Y82822D01*
X668462Y82891D01*
X668638Y82948D01*
X668826Y82991D01*
X669023Y83023D01*
X669231Y83042D01*
X669449Y83048D01*
X669778Y83031D01*
X670088Y82979D01*
X670378Y82894D01*
X670649Y82774D01*
X670900Y82619D01*
X671132Y82431D01*
X671345Y82208D01*
X671538Y81950D01*
X671710Y81661D01*
X671859Y81342D01*
X671985Y80993D01*
X672088Y80615D01*
X672168Y80207D01*
X672226Y79768D01*
X672260Y79301D01*
X672271Y78803D01*
X672260Y78344D01*
X672227Y77913D01*
X672172Y77510D01*
X672095Y77136D01*
X671996Y76789D01*
X671874Y76471D01*
X671731Y76181D01*
X671566Y75919D01*
X671380Y75687D01*
X671174Y75486D01*
X670948Y75315D01*
X670703Y75176D01*
X670439Y75067D01*
X670155Y74990D01*
X669851Y74944D01*
X669527Y74928D01*
G37*
%LPC*%
G36*
X669561Y75740D02*
X669733Y75749D01*
X669898Y75776D01*
X670054Y75822D01*
X670203Y75886D01*
X670343Y75967D01*
X670476Y76068D01*
X670601Y76186D01*
X670717Y76322D01*
X670823Y76473D01*
X670915Y76634D01*
X670992Y76806D01*
X671055Y76987D01*
X671105Y77179D01*
X671140Y77382D01*
X671161Y77595D01*
X671168Y77818D01*
X671161Y77993D01*
X671141Y78159D01*
X671107Y78316D01*
X671060Y78462D01*
X670999Y78599D01*
X670924Y78726D01*
X670836Y78844D01*
X670734Y78952D01*
X670500Y79132D01*
X670232Y79260D01*
X670086Y79305D01*
X669930Y79337D01*
X669767Y79357D01*
X669595Y79363D01*
X669412Y79356D01*
X669240Y79334D01*
X669078Y79298D01*
X668927Y79247D01*
X668786Y79182D01*
X668655Y79102D01*
X668534Y79007D01*
X668424Y78898D01*
X668326Y78776D01*
X668240Y78641D01*
X668168Y78495D01*
X668109Y78336D01*
X668063Y78164D01*
X668030Y77981D01*
X668011Y77785D01*
X668004Y77577D01*
X668011Y77368D01*
X668030Y77171D01*
X668062Y76986D01*
X668108Y76812D01*
X668166Y76649D01*
X668237Y76498D01*
X668321Y76358D01*
X668419Y76230D01*
X668527Y76115D01*
X668645Y76016D01*
X668773Y75931D01*
X668911Y75862D01*
X669059Y75809D01*
X669217Y75771D01*
X669384Y75748D01*
X669561Y75740D01*
G37*
%LPD*%
G36*
X678355Y75040D02*
X673410Y75040D01*
X673410Y75897D01*
X675331Y75897D01*
X675331Y82930D01*
X676261Y82930D01*
X678126Y81648D01*
X678126Y80696D01*
X676345Y81967D01*
X676345Y75897D01*
X678355Y75897D01*
X678355Y75040D01*
G37*
G36*
X680732Y95360D02*
X679500Y95360D01*
X680786Y97312D01*
X681740Y98759D01*
X681520Y98805D01*
X681313Y98865D01*
X681118Y98939D01*
X680935Y99027D01*
X680836Y99086D01*
X680765Y99128D01*
X680606Y99243D01*
X680460Y99372D01*
X680326Y99515D01*
X680206Y99669D01*
X680101Y99832D01*
X680013Y100004D01*
X679941Y100184D01*
X679885Y100374D01*
X679845Y100571D01*
X679821Y100778D01*
X679813Y100994D01*
X679825Y101252D01*
X679859Y101496D01*
X679915Y101726D01*
X679995Y101941D01*
X680097Y102141D01*
X680221Y102327D01*
X680368Y102498D01*
X680538Y102654D01*
X680729Y102794D01*
X680939Y102915D01*
X681168Y103017D01*
X681416Y103101D01*
X681682Y103166D01*
X681968Y103213D01*
X682273Y103241D01*
X682596Y103250D01*
X686309Y103250D01*
X686309Y95360D01*
X685240Y95360D01*
X685240Y98636D01*
X682781Y98636D01*
X680732Y95360D01*
G37*
%LPC*%
G36*
X685240Y99482D02*
X685240Y102394D01*
X682703Y102394D01*
X682289Y102371D01*
X681927Y102303D01*
X681616Y102190D01*
X681479Y102117D01*
X681356Y102032D01*
X681246Y101937D01*
X681151Y101831D01*
X681071Y101715D01*
X681005Y101589D01*
X680954Y101453D01*
X680918Y101306D01*
X680896Y101149D01*
X680888Y100982D01*
X680896Y100810D01*
X680917Y100647D01*
X680953Y100493D01*
X681004Y100350D01*
X681069Y100217D01*
X681148Y100094D01*
X681242Y99980D01*
X681350Y99876D01*
X681472Y99784D01*
X681605Y99704D01*
X681751Y99636D01*
X681908Y99580D01*
X682078Y99537D01*
X682259Y99506D01*
X682453Y99488D01*
X682658Y99482D01*
X685240Y99482D01*
G37*
%LPD*%
G36*
X678095Y95360D02*
X673150Y95360D01*
X673150Y96217D01*
X675071Y96217D01*
X675071Y103250D01*
X676001Y103250D01*
X677866Y101968D01*
X677866Y101016D01*
X676085Y102287D01*
X676085Y96217D01*
X678095Y96217D01*
X678095Y95360D01*
G37*
G36*
X670550Y95360D02*
X669497Y95360D01*
X669481Y95901D01*
X669435Y96434D01*
X669357Y96957D01*
X669248Y97471D01*
X669108Y97983D01*
X668936Y98497D01*
X668734Y99016D01*
X668500Y99538D01*
X668207Y100111D01*
X667824Y100785D01*
X667353Y101559D01*
X666792Y102433D01*
X666792Y103250D01*
X672006Y103250D01*
X672006Y102394D01*
X667767Y102394D01*
X668463Y101336D01*
X669052Y100342D01*
X669307Y99869D01*
X669534Y99411D01*
X669735Y98969D01*
X669909Y98544D01*
X670059Y98128D01*
X670189Y97718D01*
X670299Y97312D01*
X670389Y96912D01*
X670460Y96516D01*
X670510Y96126D01*
X670540Y95740D01*
X670550Y95360D01*
G37*
M02*
