G04 EAGLE Gerber RS-274X export*
G75*
%MOMM*%
%FSLAX34Y34*%
%LPD*%
%INSoldermask Top*%
%IPPOS*%
%AMOC8*
5,1,8,0,0,1.08239X$1,22.5*%
G01*
G04 Define Apertures*
%ADD10C,3.203200*%
%ADD11R,1.643200X1.643200*%
%ADD12C,1.643200*%
%ADD13C,1.311200*%
%ADD14C,0.853200*%
%ADD15R,0.803200X1.353200*%
%ADD16R,0.503200X1.353200*%
%ADD17R,2.438400X1.422400*%
%ADD18R,2.403200X3.803200*%
%ADD19R,1.703200X1.103200*%
%ADD20R,1.103200X1.703200*%
%ADD21R,1.103200X1.103200*%
%ADD22R,1.346200X0.584200*%
%ADD23R,1.703200X1.503200*%
%ADD24R,1.503200X1.703200*%
%ADD25R,1.603200X1.203200*%
%ADD26R,1.473200X1.473200*%
%ADD27R,1.803200X1.503200*%
%ADD28R,1.503200X1.803200*%
%ADD29R,1.003200X1.003200*%
%ADD30R,1.371600X1.803400*%
%ADD31R,0.152400X1.828800*%
%ADD32R,1.203200X1.603200*%
%ADD33C,2.039200*%
%ADD34C,1.261200*%
%ADD35P,1.80352X8X22.5*%
%ADD36C,1.643200*%
%ADD37C,2.032000*%
%ADD38R,0.853200X1.253200*%
%ADD39R,1.473200X0.838200*%
%ADD40C,0.803200*%
%ADD41C,0.705600*%
%ADD42C,0.655600*%
G36*
X433595Y284120D02*
X437405Y284120D01*
X437405Y279040D01*
X433595Y279040D01*
X433595Y284120D01*
G37*
D10*
X710000Y480000D03*
X-10000Y480000D03*
X-10000Y40000D03*
X710000Y40000D03*
D11*
X113446Y191700D03*
D12*
X113446Y166300D03*
X113446Y140900D03*
X113446Y115500D03*
X113446Y90100D03*
X409356Y191700D03*
X409356Y166300D03*
X409356Y140900D03*
X409356Y115500D03*
D13*
X139100Y467660D02*
X139100Y478740D01*
X52700Y478740D02*
X52700Y467660D01*
X139100Y436940D02*
X139100Y425860D01*
X52700Y425860D02*
X52700Y436940D01*
D14*
X67000Y436400D03*
X124800Y436400D03*
D15*
X127900Y425650D03*
X63900Y425650D03*
X119900Y425650D03*
X71900Y425650D03*
D16*
X93400Y425650D03*
X98400Y425650D03*
X88400Y425650D03*
X83400Y425650D03*
X78400Y425650D03*
X103400Y425650D03*
X108400Y425650D03*
X113400Y425650D03*
D17*
X296862Y455614D03*
X296862Y432500D03*
X296862Y409386D03*
D18*
X358840Y432500D03*
D19*
X341900Y107276D03*
X341900Y119976D03*
X341900Y132676D03*
X341900Y145376D03*
X341900Y158076D03*
X341900Y170776D03*
X341900Y183476D03*
X341900Y196176D03*
X341900Y208876D03*
X341900Y221576D03*
X341900Y234276D03*
X341900Y246976D03*
X341900Y259676D03*
X341900Y272376D03*
D20*
X311550Y284876D03*
X298850Y284876D03*
X286150Y284876D03*
X273450Y284876D03*
X260750Y284876D03*
X248050Y284876D03*
X235350Y284876D03*
X222650Y284876D03*
X209950Y284876D03*
X197250Y284876D03*
D19*
X166900Y272376D03*
X166900Y259676D03*
X166900Y246976D03*
X166900Y234276D03*
X166900Y221576D03*
X166900Y208876D03*
X166900Y196176D03*
X166900Y183476D03*
X166900Y170776D03*
X166900Y158076D03*
X166900Y145376D03*
X166900Y132676D03*
X166900Y119976D03*
X166900Y107276D03*
D21*
X283400Y170476D03*
X269400Y170476D03*
X255400Y170476D03*
X283400Y184476D03*
X269400Y184476D03*
X255400Y184476D03*
X283400Y198476D03*
X269400Y198476D03*
X255400Y198476D03*
D22*
X90717Y297725D03*
X90717Y304075D03*
X90717Y310425D03*
X90717Y316775D03*
X90717Y323125D03*
X90717Y329475D03*
X90717Y291375D03*
X90717Y285025D03*
X90717Y278675D03*
X90717Y272325D03*
X144311Y304075D03*
X144311Y297725D03*
X144311Y291375D03*
X144311Y285025D03*
X144311Y278675D03*
X144311Y272325D03*
X144311Y310425D03*
X144311Y316775D03*
X144311Y323125D03*
X144311Y329475D03*
D23*
X114300Y370660D03*
X114300Y389660D03*
X83100Y382300D03*
X83100Y401300D03*
D11*
X214600Y479300D03*
D12*
X234600Y479300D03*
D24*
X211400Y360900D03*
X230400Y360900D03*
D25*
X165600Y393524D03*
X187600Y403024D03*
X187600Y384024D03*
D26*
X238600Y427500D03*
X208600Y427500D03*
D27*
X269000Y398734D03*
X269000Y418734D03*
X268840Y437900D03*
X268840Y457900D03*
D28*
X105950Y233160D03*
X125950Y233160D03*
D23*
X41400Y93660D03*
X41400Y112660D03*
X62900Y93400D03*
X62900Y112400D03*
D29*
X21100Y109900D03*
X21100Y94900D03*
X82300Y110900D03*
X82300Y95900D03*
D24*
X81200Y188900D03*
X62200Y188900D03*
X37660Y188660D03*
X18660Y188660D03*
D30*
X62680Y150100D03*
X77920Y150100D03*
D31*
X70300Y150100D03*
D30*
X20680Y150300D03*
X35920Y150300D03*
D31*
X28300Y150300D03*
D23*
X403500Y407800D03*
X403500Y426800D03*
D29*
X410800Y451840D03*
X395800Y451840D03*
D27*
X367500Y123700D03*
X367500Y103700D03*
X367300Y65300D03*
X367300Y85300D03*
X409100Y63300D03*
X409100Y83300D03*
D24*
X217200Y305600D03*
X198200Y305600D03*
D23*
X410100Y263800D03*
X410100Y282800D03*
X375600Y263800D03*
X375600Y282800D03*
D27*
X367276Y142700D03*
X367276Y162700D03*
X367200Y201300D03*
X367200Y181300D03*
D32*
X45340Y363700D03*
X54840Y339700D03*
X35840Y339700D03*
X46000Y249100D03*
X36500Y273100D03*
X55500Y273100D03*
D23*
X36660Y314500D03*
X36660Y295500D03*
X58200Y314500D03*
X58200Y295500D03*
X73340Y360676D03*
X73340Y341676D03*
X17660Y360500D03*
X17660Y341500D03*
D33*
X300916Y350896D02*
X300916Y369256D01*
X326316Y369256D02*
X326316Y350896D01*
X351716Y350896D02*
X351716Y369256D01*
X377116Y369256D02*
X377116Y350896D01*
D34*
X673970Y171492D02*
X684550Y171492D01*
X684550Y196892D02*
X673970Y196892D01*
X673970Y222292D02*
X684550Y222292D01*
X684550Y247692D02*
X673970Y247692D01*
X673970Y273092D02*
X684550Y273092D01*
X684550Y298492D02*
X673970Y298492D01*
X673970Y323892D02*
X684550Y323892D01*
X684550Y349292D02*
X673970Y349292D01*
X673970Y374692D02*
X684550Y374692D01*
X658866Y210786D02*
X648286Y210786D01*
X648286Y225786D02*
X658866Y225786D01*
X658866Y240786D02*
X648286Y240786D01*
X648286Y255786D02*
X658866Y255786D01*
X658866Y270786D02*
X648286Y270786D01*
X648286Y285786D02*
X658866Y285786D01*
X658866Y300786D02*
X648286Y300786D01*
X648286Y315786D02*
X658866Y315786D01*
X658866Y330786D02*
X648286Y330786D01*
D13*
X632576Y195536D02*
X632576Y186036D01*
X631576Y345036D02*
X631576Y354536D01*
D35*
X578200Y41764D03*
X679800Y41764D03*
D36*
X300200Y307800D02*
X300200Y322200D01*
X325600Y322200D02*
X325600Y307800D01*
X351000Y307800D02*
X351000Y322200D01*
X376400Y322200D02*
X376400Y307800D01*
X401800Y307800D02*
X401800Y322200D01*
X427200Y322200D02*
X427200Y307800D01*
D37*
X466900Y54544D02*
X466900Y36256D01*
X492300Y36256D02*
X492300Y54544D01*
X517700Y54544D02*
X517700Y36256D01*
X543100Y36256D02*
X543100Y54544D01*
D38*
X14410Y449000D03*
X14410Y483650D03*
X35410Y449000D03*
X35410Y483650D03*
X159000Y448940D03*
X159000Y483590D03*
X180000Y448940D03*
X180000Y483590D03*
D39*
X435500Y266340D03*
X435500Y276500D03*
X435500Y286660D03*
D23*
X62024Y51340D03*
X62024Y70340D03*
D29*
X83000Y68500D03*
X83000Y53500D03*
D23*
X40976Y51660D03*
X40976Y70660D03*
D29*
X21185Y69160D03*
X21185Y54160D03*
D27*
X410000Y234000D03*
X410000Y214000D03*
D26*
X238820Y394200D03*
X208820Y394200D03*
D40*
X68000Y473000D03*
X126000Y472000D03*
X85357Y445357D03*
X104043Y444957D03*
X24000Y467000D03*
X169000Y467000D03*
X77000Y302000D03*
X114000Y214000D03*
X66000Y383000D03*
X114000Y353000D03*
X131000Y370000D03*
X269000Y475000D03*
X285000Y476000D03*
X303000Y476000D03*
X239000Y463000D03*
X250000Y446000D03*
X251000Y431000D03*
X214000Y463000D03*
X322000Y455000D03*
X396000Y359000D03*
X334000Y295000D03*
X305000Y268000D03*
X451000Y271000D03*
X384000Y178000D03*
X326000Y107000D03*
X151000Y120000D03*
D41*
X511000Y311000D03*
X511000Y332000D03*
X386000Y232000D03*
D40*
X482000Y132000D03*
X609000Y131000D03*
X654000Y462000D03*
X464000Y464000D03*
X615000Y350000D03*
X196000Y266000D03*
X234000Y267000D03*
X192000Y217000D03*
X317000Y196000D03*
X262000Y139000D03*
X205000Y105000D03*
X509200Y192400D03*
X567000Y82000D03*
X540200Y271400D03*
X376000Y387000D03*
D41*
X148000Y52000D03*
X102000Y69000D03*
X22000Y130000D03*
X146000Y373000D03*
X134000Y356000D03*
X51000Y385000D03*
X148000Y416000D03*
X126000Y462000D03*
X126000Y483000D03*
X68000Y462000D03*
X68000Y484000D03*
X20000Y391000D03*
X21000Y422000D03*
D42*
X262400Y177461D03*
X276407Y177470D03*
X262576Y205920D03*
X276252Y205920D03*
X276402Y191485D03*
X262412Y191476D03*
X290576Y205920D03*
X290693Y191789D03*
X290649Y177731D03*
X290576Y163420D03*
X276547Y163275D03*
X262460Y163420D03*
X247974Y163920D03*
X248076Y177420D03*
X248358Y191420D03*
D40*
X64000Y410088D03*
X54912Y410088D03*
X55000Y401000D03*
X146000Y398104D03*
X146000Y389000D03*
X136000Y389000D03*
D41*
X64000Y401000D03*
D40*
X136500Y398500D03*
D41*
X161318Y283464D03*
D40*
X440500Y296500D03*
X392000Y283000D03*
D41*
X114300Y272796D03*
X71628Y315468D03*
X54864Y352044D03*
X132588Y301752D03*
X92964Y234696D03*
X80772Y266700D03*
X27432Y202692D03*
X132588Y292608D03*
X70104Y202692D03*
X118872Y152400D03*
X83820Y164592D03*
X126492Y169164D03*
X39624Y175260D03*
D40*
X160000Y416000D03*
X160000Y369000D03*
D41*
X210213Y175359D03*
X441960Y126492D03*
X203355Y168501D03*
X36576Y460248D03*
X36576Y260604D03*
X227076Y220980D03*
X36576Y352044D03*
X22860Y323088D03*
X326136Y251460D03*
X147924Y104604D03*
M02*
