G04 EAGLE Gerber RS-274X export*
G75*
%MOMM*%
%FSLAX34Y34*%
%LPD*%
%INSoldermask Bottom*%
%IPPOS*%
%AMOC8*
5,1,8,0,0,1.08239X$1,22.5*%
G01*
G04 Define Apertures*
%ADD10C,3.203200*%
%ADD11R,1.643200X1.643200*%
%ADD12C,1.643200*%
%ADD13C,1.311200*%
%ADD14C,0.853200*%
%ADD15C,2.039200*%
%ADD16C,1.261200*%
%ADD17R,1.803200X1.503200*%
%ADD18R,1.503200X1.703200*%
%ADD19P,1.80352X8X22.5*%
%ADD20C,1.643200*%
%ADD21C,2.032000*%
%ADD22C,0.803200*%
%ADD23C,0.705600*%
%ADD24C,0.655600*%
D10*
X710000Y480000D03*
X-10000Y480000D03*
X-10000Y40000D03*
X710000Y40000D03*
D11*
X113446Y191700D03*
D12*
X113446Y166300D03*
X113446Y140900D03*
X113446Y115500D03*
X113446Y90100D03*
X409356Y191700D03*
X409356Y166300D03*
X409356Y140900D03*
X409356Y115500D03*
D13*
X139100Y467660D02*
X139100Y478740D01*
X52700Y478740D02*
X52700Y467660D01*
X139100Y436940D02*
X139100Y425860D01*
X52700Y425860D02*
X52700Y436940D01*
D14*
X67000Y436400D03*
X124800Y436400D03*
D11*
X214600Y479300D03*
D12*
X234600Y479300D03*
D15*
X300916Y369256D02*
X300916Y350896D01*
X326316Y350896D02*
X326316Y369256D01*
X351716Y369256D02*
X351716Y350896D01*
X377116Y350896D02*
X377116Y369256D01*
D16*
X673970Y171492D02*
X684550Y171492D01*
X684550Y196892D02*
X673970Y196892D01*
X673970Y222292D02*
X684550Y222292D01*
X684550Y247692D02*
X673970Y247692D01*
X673970Y273092D02*
X684550Y273092D01*
X684550Y298492D02*
X673970Y298492D01*
X673970Y323892D02*
X684550Y323892D01*
X684550Y349292D02*
X673970Y349292D01*
X673970Y374692D02*
X684550Y374692D01*
X658866Y210786D02*
X648286Y210786D01*
X648286Y225786D02*
X658866Y225786D01*
X658866Y240786D02*
X648286Y240786D01*
X648286Y255786D02*
X658866Y255786D01*
X658866Y270786D02*
X648286Y270786D01*
X648286Y285786D02*
X658866Y285786D01*
X658866Y300786D02*
X648286Y300786D01*
X648286Y315786D02*
X658866Y315786D01*
X658866Y330786D02*
X648286Y330786D01*
D13*
X632576Y195536D02*
X632576Y186036D01*
X631576Y345036D02*
X631576Y354536D01*
D17*
X626840Y235900D03*
X626840Y255900D03*
X654500Y384100D03*
X654500Y364100D03*
X601300Y255900D03*
X601300Y235900D03*
D18*
X640660Y82340D03*
X621660Y82340D03*
X640400Y102660D03*
X621400Y102660D03*
D19*
X578200Y41764D03*
X679800Y41764D03*
D20*
X300200Y307800D02*
X300200Y322200D01*
X325600Y322200D02*
X325600Y307800D01*
X351000Y307800D02*
X351000Y322200D01*
X376400Y322200D02*
X376400Y307800D01*
X401800Y307800D02*
X401800Y322200D01*
X427200Y322200D02*
X427200Y307800D01*
D21*
X466900Y54544D02*
X466900Y36256D01*
X492300Y36256D02*
X492300Y54544D01*
X517700Y54544D02*
X517700Y36256D01*
X543100Y36256D02*
X543100Y54544D01*
D22*
X68000Y473000D03*
X126000Y472000D03*
X85357Y445357D03*
X104043Y444957D03*
X24000Y467000D03*
X169000Y467000D03*
X77000Y302000D03*
X114000Y214000D03*
X66000Y383000D03*
X114000Y353000D03*
X131000Y370000D03*
X269000Y475000D03*
X285000Y476000D03*
X303000Y476000D03*
X239000Y463000D03*
X250000Y446000D03*
X251000Y431000D03*
X214000Y463000D03*
X322000Y455000D03*
X396000Y359000D03*
X334000Y295000D03*
X305000Y268000D03*
X451000Y271000D03*
X384000Y178000D03*
X326000Y107000D03*
X151000Y120000D03*
D23*
X511000Y311000D03*
X511000Y332000D03*
X386000Y232000D03*
D22*
X482000Y132000D03*
X609000Y131000D03*
X654000Y462000D03*
X464000Y464000D03*
X615000Y350000D03*
X196000Y266000D03*
X234000Y267000D03*
X192000Y217000D03*
X317000Y196000D03*
X262000Y139000D03*
X205000Y105000D03*
X509200Y192400D03*
X567000Y82000D03*
X540200Y271400D03*
X376000Y387000D03*
D23*
X148000Y52000D03*
X102000Y69000D03*
X22000Y130000D03*
X146000Y373000D03*
X134000Y356000D03*
X51000Y385000D03*
X148000Y416000D03*
X126000Y462000D03*
X126000Y483000D03*
X68000Y462000D03*
X68000Y484000D03*
X20000Y391000D03*
X21000Y422000D03*
D24*
X262400Y177461D03*
X276407Y177470D03*
X262576Y205920D03*
X276252Y205920D03*
X276402Y191485D03*
X262412Y191476D03*
X290576Y205920D03*
X290693Y191789D03*
X290649Y177731D03*
X290576Y163420D03*
X276547Y163275D03*
X262460Y163420D03*
X247974Y163920D03*
X248076Y177420D03*
X248358Y191420D03*
D22*
X64000Y410088D03*
X54912Y410088D03*
X55000Y401000D03*
X146000Y398104D03*
X146000Y389000D03*
X136000Y389000D03*
D23*
X64000Y401000D03*
D22*
X136500Y398500D03*
D23*
X161318Y283464D03*
D22*
X440500Y296500D03*
X392000Y283000D03*
D23*
X114300Y272796D03*
X71628Y315468D03*
X54864Y352044D03*
X132588Y301752D03*
X92964Y234696D03*
X80772Y266700D03*
X27432Y202692D03*
X132588Y292608D03*
X70104Y202692D03*
X118872Y152400D03*
X83820Y164592D03*
X126492Y169164D03*
X39624Y175260D03*
D22*
X160000Y416000D03*
X160000Y369000D03*
D23*
X210213Y175359D03*
X441960Y126492D03*
X203355Y168501D03*
X36576Y460248D03*
X36576Y260604D03*
X227076Y220980D03*
X36576Y352044D03*
X22860Y323088D03*
X326136Y251460D03*
X147924Y104604D03*
M02*
