M48
;GenerationSoftware,Autodesk,EAGLE,9.7.0*%
;CreationDate,2022-08-26T15:51:47Z*%
FMAT,2
ICI,OFF
METRIC,TZ,000.000
T10C0.300
T9C0.350
T8C0.550
T7C0.600
T6C0.650
T5C0.800
T4C0.813
T3C1.016
T2C1.020
T1C3.000
%
G90
M71
T1
X71000Y48000
X71000Y4000
X-1000Y4000
X-1000Y48000
T2
X30092Y36008
X32632Y36008
X35172Y36008
X37712Y36008
T3
X54310Y4540
X46690Y4540
X49230Y4540
X51770Y4540
T4
X57820Y4176
X67980Y4176
T5
X40936Y14090
X21460Y47930
X40936Y16630
X40936Y19170
X11345Y9010
X40180Y31500
X11345Y11550
X40936Y11550
X30020Y31500
X32560Y31500
X35100Y31500
X37640Y31500
X42720Y31500
X11345Y14090
X11345Y16630
X11345Y19170
X23460Y47930
T6
X12480Y43640
X6700Y43640
T7
X13910Y43140
X5270Y43140
G00X63158Y34504
M15
G01X63158Y35454
M16
X63158Y34979
G05
X13910Y47320
X5270Y47320
G00X63258Y18604
M15
G01X63258Y19554
M16
X63258Y19079
T8
G05
X65358Y28579
X65358Y30079
X65358Y31579
X67926Y17149
X67926Y19689
X67926Y22229
X67926Y24769
X67926Y27309
X67926Y29849
X67926Y32389
X65358Y33079
X67926Y34929
X67926Y37469
X65358Y21079
X65358Y22579
X65358Y25579
X65358Y27079
X65358Y24079
T9
X37600Y38700
X14800Y5200
X10200Y6900
X2200Y13000
X14600Y37300
X13400Y35600
X5100Y38500
X14800Y41600
X12600Y46200
X12600Y48300
X6800Y46200
X6800Y48400
X2000Y39100
X2100Y42200
X39200Y28300
X6400Y41009
X5491Y41009
X5500Y40100
X14600Y39810
X14600Y38900
X13600Y38900
X6400Y40100
X13650Y39850
X16132Y28346
X44050Y29650
X33400Y29500
X11430Y27280
X7163Y31547
X5486Y35204
X13259Y30175
X9296Y23470
X8077Y26670
X2743Y20269
X13259Y29261
X7010Y20269
X11887Y15240
X8382Y16459
X12649Y16916
X3962Y17526
X16000Y41600
X16000Y36900
X21021Y17536
X44196Y12649
X20335Y16850
X3658Y46025
X22708Y22098
X3658Y35204
X2286Y32309
X32614Y25146
X14792Y10460
X6800Y47300
X12600Y47200
X8536Y44536
X10404Y44496
X2400Y46700
X16900Y46700
X7700Y30200
X11400Y21400
X6600Y38300
X11400Y35300
X13100Y37000
X26900Y47500
X28500Y47600
X30300Y47600
X23900Y46300
X25000Y44600
X25100Y43100
X21400Y46300
X32200Y45500
X39600Y35900
X30500Y26800
X45100Y27100
X3658Y26060
X38400Y17800
X32600Y10700
X15100Y12000
X51100Y31100
X51100Y33200
X38600Y23200
X48200Y13200
X60900Y13100
X65400Y46200
X46400Y46400
X61500Y35000
X19600Y26600
X23400Y26700
X19200Y21700
X31700Y19600
X26200Y13900
X20500Y10500
X50920Y19240
X56700Y8200
X54020Y27140
T10
X27641Y17747
X26240Y17746
X26241Y19148
X24836Y19142
X24808Y17742
X24797Y16392
X26246Y16342
X27655Y16327
X29058Y16342
X29065Y17773
X29069Y19179
X29058Y20592
X27640Y19149
X27625Y20592
X26258Y20592
M30